<svg width="350" height="475" viewBox="0 0 350 475" fill="none" xmlns="http://www.w3.org/2000/svg">
<g clip-path="url(#clip0_19_9294)">
<path d="M296.856 239.509C289.562 233.477 281.662 228.316 273.144 223.997C287.99 215.459 299.9 204.286 308.856 190.457C319.592 173.872 324.975 154.532 324.975 132.426C324.975 106.171 318.567 83.2636 305.771 63.6827C292.965 44.112 275.244 28.9103 252.607 18.0877C229.98 7.27518 203.791 1.85388 174.07 1.85388C144.348 1.85388 119.303 7.61589 96.2089 19.1299C73.1144 30.6439 54.5871 46.537 40.6468 66.7992C26.6866 87.0715 18.806 110.791 16.9751 137.958H109.582C111.403 126.454 115.174 116.543 120.905 108.256C126.617 99.9684 133.94 93.6352 142.856 89.256C151.771 84.8869 161.94 82.6924 173.383 82.6924C184.826 82.6924 194.408 84.7667 203.562 88.9053C212.706 93.054 219.91 99.1567 225.174 107.213C230.428 115.28 233.065 125.291 233.065 137.266C233.065 152.007 227.682 164.212 216.945 173.882C206.199 183.553 192.597 188.393 176.129 188.393H100.677V264.381H182.308C200.139 264.381 214.776 269.562 226.209 279.923C237.632 290.285 243.363 304.224 243.363 321.721C243.363 340.149 236.955 353.968 224.159 363.167C211.353 372.386 195.572 376.986 176.826 376.986C164.478 376.986 153.383 374.801 143.552 370.422C133.711 366.053 125.721 359.71 119.542 351.422C113.373 343.135 109.363 333.235 107.542 321.721H14.9254C16.7463 348.436 24.8756 372.045 39.2736 392.528C53.6816 413.031 72.8856 429.034 96.8955 440.538C120.905 452.042 148 457.814 178.189 457.814C208.378 457.814 235.92 451.942 259.473 440.197C283.025 428.453 301.542 412.8 315.035 393.22C328.517 373.649 335.274 351.883 335.274 327.933C335.274 290.175 322.468 260.693 296.856 239.509Z" stroke="#A5002F" stroke-miterlimit="10"/>
<path d="M42.9353 292.209C42.9353 397.689 89.1244 438.314 183.453 438.314C269.98 438.314 307.055 400.314 307.055 333.485C307.055 266.656 271.92 242.415 213.373 242.415H149.622V205.729H213.373C271.92 205.729 300.547 181.488 300.547 128.418C300.547 75.347 269.97 36.6965 183.443 36.6965C89.1144 36.6965 49.4328 77.3212 49.4328 156.596H6.50746C6.50746 56.9988 65.7015 0 183.453 0C293.393 0 343.493 53.722 343.493 121.864C343.493 175.586 317.473 208.344 258.915 217.523V230.631C317.463 243.077 349.99 271.907 349.99 340.049C349.99 421.288 293.393 475.01 183.443 475.01C65.7015 475 0 418.001 0 292.209H42.9353Z" fill="#A5002F"/>
</g>
<defs>
<clipPath id="clip0_19_9294">
<rect width="350" height="475" fill="white"/>
</clipPath>
</defs>
</svg>
