<svg width="60" height="78" viewBox="0 0 60 78" fill="none" xmlns="http://www.w3.org/2000/svg">
<path d="M53.7863 68.7964H51.9975L48.0074 62.1544C60.9145 52.8872 63.8649 34.9126 54.5977 22.0055C53.4251 20.3715 52.0835 18.8658 50.5966 17.5118L54.3491 13.7593H56.2879C56.979 13.7593 57.5388 13.1995 57.5388 12.5084V8.7559C57.5403 8.42286 57.4106 8.1039 57.176 7.8678L49.671 0.362744C49.4318 0.134466 49.1144 0.00469066 48.7829 0H45.0303C44.3393 0 43.7795 0.559752 43.7795 1.25084V3.23968L25.3796 21.6271C24.8887 22.1133 24.8855 22.9061 25.3718 23.3955C25.3749 23.3986 25.3765 23.4001 25.3796 23.4033L25.7549 23.766L22.8779 26.6304C22.387 27.1167 22.3838 27.9094 22.8701 28.3988C22.8732 28.402 22.8748 28.4035 22.8779 28.4066L29.1321 34.6609C29.6184 35.1518 30.4111 35.1549 30.9005 34.6687C30.9036 34.6656 30.9052 34.664 30.9083 34.6609L33.7728 31.7839L34.1355 32.1592C34.6218 32.6501 35.4145 32.6533 35.9039 32.167C35.907 32.1639 35.9086 32.1623 35.9117 32.1592L42.6037 25.4672C46.5361 28.7663 48.8001 33.643 48.7829 38.7761C48.7641 44.1563 46.2734 49.2301 42.0283 52.5354C39.1045 49.3395 34.1449 49.1175 30.9474 52.0413C30.3892 52.551 29.9092 53.1389 29.5199 53.7863L28.0564 56.2879H3.75253C1.68082 56.2879 0 57.9688 0 60.0405C0 62.1122 1.68082 63.793 3.75253 63.793H23.5534L20.5514 68.7964H5.00337C4.31228 68.7964 3.75253 69.3561 3.75253 70.0472V76.3014C3.75253 76.9925 4.31228 77.5523 5.00337 77.5523H53.7863C54.4773 77.5523 55.0371 76.9925 55.0371 76.3014V70.0472C55.0371 69.3561 54.4773 68.7964 53.7863 68.7964ZM48.2575 2.50169L55.0371 9.26875V11.2576H54.2991L46.2812 3.23968V2.50169H48.2575ZM30.0202 32.0091L25.5297 27.5185L27.5185 25.5297L32.0091 30.0202L30.0202 32.0091ZM35.0236 29.5074L28.0314 22.5152L45.0303 5.51622L52.0226 12.5084L35.0236 29.5074ZM51.2846 38.7761C51.3018 32.98 48.7782 27.4669 44.3799 23.691L48.7829 19.238C59.5902 28.9164 60.5033 45.5229 50.8249 56.3302C49.5912 57.7076 48.2137 58.9522 46.719 60.0405L43.4918 54.6493C48.4123 50.8546 51.2924 44.9897 51.2846 38.7761ZM3.75253 61.2913C3.06144 61.2913 2.50169 60.7316 2.50169 60.0405C2.50169 59.3494 3.06144 58.7896 3.75253 58.7896H26.5554L25.0169 61.2913H3.75253ZM52.5354 75.0506H6.25422V71.298H46.2812V68.7964H23.4783L31.6588 55.1497C33.1833 52.6011 36.4871 51.7708 39.0357 53.2953C39.7971 53.7503 40.4335 54.3882 40.8901 55.1497L50.2088 70.6851C50.434 71.0651 50.8436 71.298 51.2846 71.298H52.5354V75.0506Z" fill="white"/>
<path d="M36.2744 53.7863C34.2027 53.7863 32.5219 55.4671 32.5219 57.5388C32.5219 59.6105 34.2027 61.2913 36.2744 61.2913C38.3461 61.2913 40.027 59.6105 40.027 57.5388C40.027 55.4671 38.3461 53.7863 36.2744 53.7863ZM36.2744 58.7896C35.5833 58.7896 35.0236 58.2299 35.0236 57.5388C35.0236 56.8477 35.5833 56.2879 36.2744 56.2879C36.9655 56.2879 37.5253 56.8477 37.5253 57.5388C37.5253 58.2299 36.9655 58.7896 36.2744 58.7896Z" fill="white"/>
<path d="M10.0067 18.7626H11.2576V31.2711C11.2451 31.3711 11.2451 31.4712 11.2576 31.5713L12.5084 36.4245V38.7761C12.5084 40.8478 14.1892 42.5287 16.261 42.5287C18.3327 42.5287 20.0135 40.8478 20.0135 38.7761V36.4245L21.2643 31.5713C21.2768 31.4712 21.2768 31.3711 21.2643 31.2711V18.7626H22.5152C24.5869 18.7626 26.2677 17.0818 26.2677 15.0101C26.2677 12.9384 24.5869 11.2576 22.5152 11.2576V6.25422C22.5152 2.80032 19.7148 0 16.261 0C12.8071 0 10.0067 2.80032 10.0067 6.25422V11.2576C7.93503 11.2576 6.25421 12.9384 6.25421 15.0101C6.25421 17.0818 7.93503 18.7626 10.0067 18.7626ZM18.7626 31.121L17.5118 35.9742C17.4993 36.0743 17.4993 36.1744 17.5118 36.2744V38.7761C17.5118 39.4672 16.952 40.027 16.261 40.027C15.5699 40.027 15.0101 39.4672 15.0101 38.7761V36.2744C15.0226 36.1744 15.0226 36.0743 15.0101 35.9742L13.7593 31.121V18.7626H18.7626V31.121ZM10.0067 13.7593H17.5118V11.2576H12.5084V6.25422C12.5084 4.18251 14.1892 2.50169 16.261 2.50169C18.3327 2.50169 20.0135 4.18251 20.0135 6.25422V12.5084C20.0135 13.1995 20.5732 13.7593 21.2643 13.7593H22.5152C23.2063 13.7593 23.766 14.319 23.766 15.0101C23.766 15.7012 23.2063 16.261 22.5152 16.261H10.0067C9.31565 16.261 8.7559 15.7012 8.7559 15.0101C8.7559 14.319 9.31565 13.7593 10.0067 13.7593Z" fill="white"/>
<path d="M15.2102 44.3549L13.1338 47.532C12.7226 48.1606 12.5053 48.8955 12.5084 49.646V51.147C12.5006 52.5854 13.2964 53.9082 14.5723 54.5743C15.6308 55.1247 16.8911 55.1247 17.9496 54.5743C19.2098 53.9176 20.0041 52.6183 20.0135 51.197V49.696C20.026 48.9283 19.8087 48.1747 19.3881 47.532L17.3117 44.3049C16.9239 43.7342 16.1452 43.5856 15.5745 43.9734C15.4276 44.0735 15.3041 44.2032 15.2102 44.3549ZM17.5118 51.197C17.5415 51.7177 17.2616 52.2071 16.7988 52.4479C16.4595 52.6355 16.0499 52.6355 15.7106 52.4479C15.254 52.2024 14.982 51.7145 15.0101 51.197V49.696C15.0023 49.4286 15.082 49.1644 15.2353 48.9455L16.2609 47.3444L17.2866 48.933C17.4352 49.1597 17.5149 49.4255 17.5118 49.696V51.197Z" fill="white"/>
</svg>
