<svg width="64" height="62" viewBox="0 0 64 62" fill="none" xmlns="http://www.w3.org/2000/svg">
<g clip-path="url(#clip0_34_8780)">
<path d="M63.6209 56.6307V5.26797C63.6209 2.33007 61.2908 0 58.3529 0H5.26797C2.33007 0 0 2.33007 0 5.26797V56.732C0 59.6699 2.33007 62 5.26797 62H58.3529C61.2908 62 63.7222 59.5686 63.6209 56.6307ZM60.7843 5.26797V10.0294H31.1013L27.4656 2.8366H58.3529C59.6699 2.8366 60.7843 3.95098 60.7843 5.26797ZM58.3529 59.0621H5.26797C3.95098 59.0621 2.8366 57.9477 2.8366 56.6307V5.26797C2.8366 3.95098 3.95098 2.8366 5.26797 2.8366H24.2124L29.2778 12.9673H60.7843V56.6307C60.7843 57.9477 59.6699 59.0621 58.3529 59.0621Z" fill="white"/>
<path d="M10.0294 7.09149H7.09149V10.0294H10.0294V7.09149Z" fill="white"/>
<path d="M16.0065 7.09149H13.0686V10.0294H16.0065V7.09149Z" fill="white"/>
<path d="M21.9837 7.09149H19.0458V10.0294H21.9837V7.09149Z" fill="white"/>
<path d="M41.1307 21.6797C38.6829 21.6797 36.5884 23.3678 35.9565 25.6307H14.3856V28.5686H35.9856C36.6504 30.7797 38.7196 32.4183 41.1307 32.4183C43.6634 32.4183 45.7022 30.7303 46.3113 28.4673H49.2353V25.5294H46.2759C45.611 23.3184 43.5418 21.6797 41.1307 21.6797ZM41.1307 29.683C39.7124 29.683 38.598 28.5686 38.598 27.1503C38.598 25.732 39.8137 24.6177 41.1307 24.6177C42.549 24.6177 43.6634 25.732 43.6634 27.1503C43.6634 28.5686 42.4477 29.683 41.1307 29.683Z" fill="white"/>
<path d="M22.4902 43.2582C24.938 43.2582 27.0326 41.5701 27.6645 39.3072H49.134V36.3693H27.6353C26.9705 34.1582 24.9013 32.5196 22.4902 32.5196C20.0791 32.5196 17.9478 34.2076 17.3159 36.4706H14.3856V39.4085H17.3451C18.0099 41.6195 20.0791 43.2582 22.4902 43.2582ZM22.4902 35.4575C23.8072 35.4575 24.9216 36.5719 25.0229 37.9902C25.0229 39.4085 23.9085 40.5229 22.4902 40.5229C21.0719 40.5229 19.9575 39.3072 19.9575 37.9902C19.9575 36.5719 21.0719 35.4575 22.4902 35.4575Z" fill="white"/>
<path d="M35.7614 43.3595C33.3136 43.3595 31.2191 45.0475 30.5872 47.3105H14.3856V50.2484H30.6163C31.2811 52.4594 33.3503 54.0981 35.7614 54.0981C38.1726 54.0981 40.3038 52.41 40.9357 50.1471H49.2353V47.2092H40.9066C40.2417 44.9981 38.1726 43.3595 35.7614 43.3595ZM35.7614 51.3628C34.3431 51.3628 33.2288 50.1471 33.2288 48.8301C33.2288 47.4118 34.4444 46.2974 35.7614 46.2974C37.0784 46.2974 38.1928 47.4118 38.2941 48.8301C38.2941 50.2484 37.0784 51.3628 35.7614 51.3628Z" fill="white"/>
</g>
<defs>
<clipPath id="clip0_34_8780">
<rect width="63.6235" height="62" fill="white"/>
</clipPath>
</defs>
</svg>
