<svg width="68" height="66" viewBox="0 0 68 66" fill="none" xmlns="http://www.w3.org/2000/svg">
<g clip-path="url(#clip0_34_8794)">
<path d="M47.8724 25.4571C48.598 25.7547 49.446 25.3294 49.6449 24.5722C49.9504 23.4055 50.1057 22.1966 50.1057 20.9786C50.1057 19.7605 49.9517 18.5674 49.6488 17.4047C49.4513 16.6462 48.6019 16.2208 47.875 16.5184C46.9098 16.9148 45.7878 16.5303 45.265 15.6256C44.7423 14.7196 44.9701 13.5568 45.797 12.9208C46.4186 12.4428 46.4779 11.4947 45.9208 10.9416C44.1931 9.22971 42.0441 7.98662 39.708 7.34795C38.9495 7.13989 38.1581 7.66794 38.0553 8.4462C37.9184 9.48255 37.0256 10.2634 35.9774 10.2634C34.9292 10.2634 34.0364 9.48255 33.8994 8.4462C33.7967 7.66794 33.0053 7.13989 32.2468 7.34795C29.9107 7.98662 27.7629 9.2284 26.0339 10.9416C25.4769 11.4934 25.5362 12.4415 26.1577 12.9195C26.9834 13.5568 27.2125 14.7196 26.6897 15.6243C26.1669 16.529 25.045 16.9135 24.0797 16.5171C23.3528 16.2182 22.5035 16.6448 22.3059 17.4033C22.0031 18.5648 21.849 19.7671 21.849 20.9772C21.849 22.1874 22.0044 23.4042 22.3112 24.5709C22.5101 25.3281 23.3568 25.7521 24.0837 25.4545C25.0476 25.0608 26.1669 25.444 26.6897 26.3486C27.2099 27.2507 26.9847 28.4121 26.1643 29.0495C25.8654 29.2825 25.681 29.6328 25.6573 30.0108C25.6349 30.3887 25.7758 30.7587 26.0458 31.026C27.7721 32.734 29.9173 33.9718 32.2481 34.6078C33.0026 34.8133 33.7927 34.2918 33.8994 33.5162C34.0403 32.4877 34.9331 31.7108 35.9747 31.7108C37.0164 31.7108 37.9092 32.4864 38.0501 33.5162C38.1567 34.2905 38.9455 34.8133 39.7014 34.6078C42.0335 33.9718 44.1787 32.7327 45.905 31.026C46.4621 30.4756 46.4054 29.5301 45.7865 29.0495C44.9661 28.4121 44.7409 27.252 45.2611 26.3499C45.7826 25.4453 46.9032 25.0608 47.8671 25.4558L47.8724 25.4571ZM42.9856 25.0344C42.0783 26.6067 42.1757 28.5267 43.1225 29.9844C42.235 30.6889 41.2487 31.2591 40.1978 31.6739C39.4091 30.1253 37.7946 29.0798 35.9787 29.0798C34.1628 29.0798 32.5483 30.1253 31.7595 31.6739C30.71 31.2591 29.7237 30.6889 28.8362 29.9844C29.7816 28.528 29.8804 26.6067 28.9731 25.0344C28.0632 23.4582 26.3473 22.5838 24.6104 22.6773C24.5275 22.1176 24.4853 21.5501 24.4853 20.9786C24.4853 20.407 24.5261 19.854 24.6078 19.2996C26.3473 19.3944 28.0632 18.5187 28.9731 16.9424C29.8844 15.3636 29.783 13.4383 28.8283 11.9793C29.7145 11.2735 30.7008 10.7033 31.7516 10.2871C32.5365 11.845 34.1536 12.8971 35.98 12.8971C37.8065 12.8971 39.4235 11.845 40.2084 10.2871C41.2579 10.7033 42.2455 11.2748 43.1318 11.9793C42.1771 13.437 42.0757 15.3636 42.9882 16.9424C43.8982 18.5187 45.6127 19.3931 47.3536 19.2983C47.4339 19.8527 47.476 20.4136 47.476 20.9772C47.476 21.5408 47.4339 22.115 47.3509 22.676C45.614 22.5825 43.8982 23.4569 42.9882 25.0331L42.9856 25.0344Z" fill="white"/>
<path d="M35.9787 15.2714C32.8314 15.2714 30.2715 17.8313 30.2715 20.9785C30.2715 24.1258 32.8314 26.6857 35.9787 26.6857C39.1259 26.6857 41.6859 24.1258 41.6859 20.9785C41.6859 17.8313 39.1259 15.2714 35.9787 15.2714ZM35.9787 24.052C34.2839 24.052 32.9052 22.6733 32.9052 20.9785C32.9052 19.2838 34.2839 17.905 35.9787 17.905C37.6735 17.905 39.0522 19.2838 39.0522 20.9785C39.0522 22.6733 37.6735 24.052 35.9787 24.052Z" fill="white"/>
<path d="M67.2997 54.7766C66.6545 51.6728 63.4954 49.6409 60.3982 50.3494L47.2166 53.3676C44.841 53.9114 42.3904 53.7955 40.0885 53.037C40.9866 52.4063 41.7254 51.52 42.1876 50.4271C43.4768 47.4128 42.1165 43.8415 39.0601 42.5774L25.6336 37.0203C25.4743 36.9545 25.3031 36.9202 25.1306 36.9202H12.5995V35.132C12.5995 34.4156 12.0004 33.8151 11.2827 33.8151H1.31684C0.589944 33.8151 0 34.4051 0 35.132V58.278C0 59.0049 0.589944 59.5949 1.31684 59.5949H11.284C12.0109 59.5949 12.6008 59.0049 12.6008 58.278V57.0271H17.8037C18.5306 57.0271 19.1205 56.4371 19.1205 55.7102C19.1205 54.9833 18.5306 54.3934 17.8037 54.3934H12.6008V39.5539H24.8698L38.054 45.0109C39.7751 45.7233 40.4928 47.7196 39.7633 49.4012C39.0654 51.0512 37.256 51.869 35.5863 51.3238L26.6081 47.8724C25.9286 47.6117 25.1674 47.9501 24.9067 48.6283C24.646 49.3064 24.9844 50.0689 25.6626 50.3296C25.6626 50.3296 30.6587 52.2509 34.4683 53.7192C34.5447 53.7481 34.6197 53.7758 34.6961 53.8021L38.5281 55.2757C41.4962 56.4174 44.7041 56.6452 47.8052 55.9354L60.9868 52.9172C62.6618 52.5327 64.3724 53.6336 64.7214 55.3125C65.0611 56.9441 64.0603 58.5454 62.4445 58.9562L46.7175 62.9528C44.0035 63.6429 41.1894 63.4664 38.5821 62.4445L29.2733 58.7929C28.5965 58.5269 27.8327 58.8614 27.5667 59.5383C27.3007 60.2151 27.6352 60.9789 28.3121 61.2449L37.6208 64.8965C39.4947 65.6313 41.4567 66.0013 43.4294 66.0013C44.7449 66.0013 46.0657 65.8367 47.3667 65.5062L63.0937 61.5096C66.0803 60.7511 67.9278 57.7935 67.301 54.7779L67.2997 54.7766ZM2.63368 56.9612V36.4475H9.96848V55.7089V56.9599H2.63368V56.9612Z" fill="white"/>
<path d="M12.6864 26.6252L16.3986 28.8125C16.9872 29.1588 17.7681 28.985 18.154 28.4227L20.6072 24.8422C21.0181 24.2417 20.8653 23.4226 20.2648 23.0118C19.6657 22.6009 18.8453 22.7537 18.4344 23.3542L17.6496 24.4998C16.9925 20.968 17.3783 17.2914 18.7808 13.9532C22.73 4.55759 33.5873 0.127737 42.9816 4.07826C47.5326 5.99162 51.0657 9.56289 52.9317 14.1336C54.7963 18.7044 54.77 23.7281 52.8566 28.2791C51.9046 30.5441 50.5429 32.5589 48.8087 34.2694C48.2911 34.7804 48.2846 35.6139 48.7955 36.1315C49.2985 36.6411 50.1479 36.6477 50.6575 36.1446C52.6407 34.1891 54.1972 31.886 55.2836 29.2997C57.4695 24.1008 57.4998 18.3607 55.3692 13.1381C53.2385 7.91553 49.2011 3.83596 44.0022 1.65C33.2686 -2.86281 20.8653 2.19781 16.3525 12.9314C14.7512 16.7397 14.3114 20.9338 15.0567 24.9646L14.023 24.355C13.3962 23.9862 12.589 24.1943 12.2203 24.8211C11.8516 25.4479 12.0596 26.2552 12.6864 26.6239V26.6252Z" fill="white"/>
<path d="M46.1407 37.5036C45.7431 36.907 44.9121 36.7437 44.3156 37.1401C43.7191 37.5378 43.5545 38.37 43.9508 38.9666C44.3472 39.5644 45.1821 39.7264 45.7773 39.33C46.3778 38.9297 46.5332 38.1027 46.1407 37.5036Z" fill="white"/>
<path d="M24.2628 57.0811C23.8651 56.4845 23.0342 56.3213 22.4376 56.7176C21.8411 57.1153 21.6765 57.9475 22.0729 58.5441C22.4692 59.1419 23.3041 59.3039 23.8993 58.9075C24.4998 58.5072 24.6552 57.6802 24.2628 57.0811Z" fill="white"/>
</g>
<defs>
<clipPath id="clip0_34_8794">
<rect width="67.4222" height="66" fill="white"/>
</clipPath>
</defs>
</svg>
