<svg width="79" height="77" viewBox="0 0 79 77" fill="none" xmlns="http://www.w3.org/2000/svg">
<g clip-path="url(#clip0_34_8770)">
<path d="M39.0902 13.7426C30.2491 13.7426 23.0571 20.9346 23.0571 29.7757C23.0571 35.9614 26.679 41.5699 32.2189 44.2039V59.5514H45.9615V44.2039C51.5013 41.5699 55.1233 35.9599 55.1233 29.7757C55.1233 20.9346 47.9313 13.7426 39.0902 13.7426ZM41.3806 54.9705H36.7997V50.3896H41.3806V54.9705ZM42.9045 40.5194L41.3806 41.0615V45.8103H36.7997V41.0615L35.2758 40.5194C30.7072 38.8947 27.638 34.578 27.638 29.7757C27.638 23.4617 32.7762 18.3235 39.0902 18.3235C45.4042 18.3235 50.5424 23.4617 50.5424 29.7757C50.5424 34.5765 47.4732 38.8947 42.9045 40.5179V40.5194Z" fill="white"/>
<path d="M39.0902 31.1179L36.1294 28.1572L32.8907 31.3958L39.0917 37.5968L45.2927 31.3958L42.054 28.1572L39.0932 31.1179H39.0902Z" fill="white"/>
<path d="M9.31445 27.4853H18.4762V32.0662H9.31445V27.4853Z" fill="white"/>
<path d="M59.7041 27.4853H68.8659V32.0662H59.7041V27.4853Z" fill="white"/>
<path d="M12.1577 42.6785L20.0917 38.0977L22.3822 42.0647L14.4481 46.6456L12.1577 42.6785Z" fill="white"/>
<path d="M55.7951 17.4852L63.7292 12.9044L66.0196 16.8714L58.0855 21.4523L55.7951 17.4852Z" fill="white"/>
<path d="M12.1577 16.8714L14.4481 12.9044L22.3822 17.4852L20.0917 21.4523L12.1577 16.8714Z" fill="white"/>
<path d="M55.7966 42.0677L58.0871 38.1007L66.0212 42.6816L63.7307 46.6486L55.7966 42.0677Z" fill="white"/>
<path d="M57.4137 0H20.7667C9.31598 0 0 9.24727 0 20.614V48.0992C0 58.6979 8.099 67.4535 18.4762 68.588V77L35.0498 68.7132H57.4137C68.8644 68.7132 78.1803 59.4659 78.1803 48.0992V20.614C78.1803 9.24727 68.8644 0 57.4137 0ZM73.5995 48.0992C73.5995 56.9403 66.3388 64.1323 57.4137 64.1323H33.9688L23.0571 69.5881V64.1323H20.7667C11.8416 64.1323 4.58088 56.9403 4.58088 48.0992V20.614C4.58088 11.7729 11.8416 4.58088 20.7667 4.58088H57.4137C66.3388 4.58088 73.5995 11.7729 73.5995 20.614V48.0992Z" fill="white"/>
</g>
<defs>
<clipPath id="clip0_34_8770">
<rect width="78.1803" height="77" fill="white"/>
</clipPath>
</defs>
</svg>
