<svg width="70" height="70" viewBox="0 0 70 70" fill="none" xmlns="http://www.w3.org/2000/svg">
<g clip-path="url(#clip0_34_8801)">
<path d="M64.1667 0H22.1667C18.9467 0.00291667 16.3363 2.61333 16.3333 5.83333V30.3333C15.6887 30.3333 15.1667 30.8554 15.1667 31.5V34.526C14.0948 34.8454 13.0579 35.2756 12.075 35.8094L9.93417 33.6671C9.47917 33.2121 8.73979 33.2121 8.28479 33.6671L3.33521 38.6167C2.88021 39.0717 2.88021 39.811 3.33521 40.266L5.4775 42.4083C4.94375 43.3912 4.51354 44.4281 4.19417 45.5H1.16667C0.522083 45.5 0 46.0221 0 46.6667V53.6667C0 54.3112 0.522083 54.8333 1.16667 54.8333H4.19271C4.51208 55.9052 4.94229 56.9421 5.47604 57.925L3.33375 60.0658C2.73438 60.6667 2.93417 61.304 3.33375 61.7152L8.28333 66.6648C8.73833 67.1198 9.47771 67.1198 9.93271 66.6648L12.075 64.5225C13.0579 65.0563 14.0948 65.485 15.1667 65.8058V68.8319C15.1667 69.4765 15.6887 69.9985 16.3333 69.9985H23.3333C23.9779 69.9985 24.5 69.4765 24.5 68.8319V65.8058C25.5719 65.4865 26.6087 65.0563 27.5917 64.5225L29.734 66.6648C30.189 67.1198 30.9283 67.1198 31.3833 66.6648L36.3329 61.7152C36.7631 61.3346 36.8725 60.6054 36.4467 60.1796L34.1906 57.9235C34.7244 56.9406 35.1531 55.9037 35.4725 54.8319H38.4985C39.1431 54.8319 39.6652 54.3098 39.6652 53.6652V51.3319H46.779V48.9985H44.3319V43.6829C44.3304 42.1094 43.0544 40.8333 41.4808 40.8319C40.8042 40.8246 40.1494 41.0667 39.6404 41.5115C39.3342 41.8119 38.9273 41.9854 38.4985 41.9985C37.6615 41.9985 36.8565 41.2665 36.4437 40.1319C36.9192 39.0571 36.1667 38.4504 36.1667 38.4504C36.1842 36.575 37.2444 34.9985 38.4985 34.9985C38.9258 35.0117 39.3342 35.1867 39.6404 35.4856C40.1494 35.9304 40.8056 36.1725 41.4808 36.1652C43.0544 36.1637 44.3304 34.8877 44.3319 33.3142V26.8319H50.8142C51.1 26.8319 51.3319 27.0637 51.3319 27.3496C51.3362 27.4531 51.3056 27.5552 51.2444 27.6383C50.5619 28.3704 50.1769 29.3315 50.1652 30.3319C50.1652 32.9058 52.7815 34.9985 55.9985 34.9985C59.2156 34.9985 61.8319 32.9058 61.8319 30.3319C61.8202 29.3315 61.4352 28.3704 60.7527 27.6383C60.6915 27.5552 60.6608 27.4531 60.6652 27.3496C60.6652 27.0637 60.8971 26.8319 61.1829 26.8319H67.6652V45.4985C67.6637 47.4308 66.0975 48.9971 64.1652 48.9985H58.0285V51.3319H64.1652C67.3852 51.329 69.9956 48.7185 69.9985 45.4985V5.83333C69.9956 2.61333 67.3852 0.00291667 64.1652 0H64.1667ZM22.1667 2.33333H42V7.64896C42.0015 9.2225 43.2775 10.4985 44.851 10.5C45.5277 10.5073 46.1825 10.2652 46.6915 9.82042C46.9977 9.52146 47.4046 9.34646 47.8333 9.33333C49.0977 9.33333 50.1667 10.936 50.1667 12.8333C50.1667 14.7306 49.0977 16.3333 47.8333 16.3333C47.4046 16.3202 46.9977 16.1452 46.6915 15.8462C46.1825 15.4015 45.5277 15.1594 44.851 15.1667C43.2775 15.1681 42.0015 16.4442 42 18.0177V24.5H35.5177C35.2319 24.5 35.0773 24.376 35.0087 24.2083C34.9256 24.0377 34.9562 23.8321 35.0875 23.6935C35.7962 22.979 36.1856 22.0062 36.1667 21C36.1667 18.426 33.5504 16.3333 30.3333 16.3333C27.1162 16.3333 24.5 18.426 24.5 21C24.5 21.9698 24.8952 22.8827 25.5792 23.6935C25.6944 23.8233 25.7381 24.0027 25.6944 24.1719C25.6127 24.4183 25.4348 24.5 25.149 24.5H18.6667V5.83333C18.6696 3.90104 20.2344 2.33625 22.1667 2.33333ZM37.3333 52.5H34.5771C34.036 52.5 33.5665 52.8719 33.441 53.3983C33.0983 54.8494 32.5223 56.2348 31.7392 57.5021C31.4548 57.9629 31.5248 58.5579 31.9069 58.94L33.8581 60.8898L30.5579 64.19L28.6081 62.2387C28.226 61.8567 27.6296 61.7867 27.1702 62.071C25.9029 62.8556 24.516 63.4302 23.065 63.7744C22.5385 63.8983 22.1667 64.3694 22.1667 64.9104V67.6652H17.5V64.9104C17.5 64.3694 17.1281 63.8998 16.6017 63.7744C15.1506 63.4302 13.7652 62.8556 12.4979 62.071C12.0371 61.7867 11.4421 61.8567 11.06 62.2387L9.10875 64.19L5.80854 60.8898L7.75979 58.94C8.14187 58.5579 8.21187 57.9615 7.9275 57.5021C7.14292 56.2348 6.56833 54.8479 6.22417 53.3969C6.10021 52.8704 5.63063 52.4985 5.08958 52.4985H2.33333V47.8319H5.08958C5.63063 47.8319 6.10021 47.46 6.22417 46.9335C6.56687 45.4825 7.14292 44.0971 7.92604 42.8298C8.21042 42.369 8.14042 41.774 7.75833 41.3919L5.80708 39.4406L9.10729 36.1404L11.0571 38.0917C11.4392 38.4738 12.0356 38.5438 12.495 38.2594C13.7623 37.4748 15.1492 36.9002 16.6002 36.556C17.1267 36.4321 17.4985 35.9625 17.4985 35.4215V32.6652H22.1652V35.4215C22.1652 35.9625 22.5371 36.4321 23.0635 36.5575C24.5146 36.9002 25.9 37.4762 27.1673 38.2594C27.6281 38.5438 28.2231 38.4738 28.6052 38.0917L30.555 36.1404L33.8552 39.4406L31.904 41.3904C31.5219 41.7725 31.4519 42.369 31.7362 42.8283C32.5208 44.0956 33.0954 45.4825 33.4396 46.9335C33.5635 47.46 34.0346 47.8319 34.5756 47.8319H37.3319V52.4985L37.3333 52.5ZM38.5 44.3333C39.4698 44.3333 40.3754 43.9294 41.1935 43.2542C41.4021 43.0792 41.7127 43.1083 41.8877 43.3169C41.9738 43.419 42.0131 43.5517 42 43.6844V49H39.6667V46.6667C39.6667 46.0221 39.1446 45.5 38.5 45.5H35.474C35.1546 44.4281 34.7244 43.3912 34.1921 42.4083L34.7025 41.8979C35.5658 43.4044 36.976 44.3333 38.5015 44.3333H38.5ZM42 33.3156C42 33.8085 41.5508 34.0521 41.1935 33.7458C40.39 33.0546 39.4698 32.6667 38.5 32.6667C36.5108 32.6667 34.8104 34.23 34.1396 36.4248L31.3833 33.6685C30.9283 33.2135 30.189 33.2135 29.734 33.6685L27.5917 35.8094C26.6087 35.2756 25.5719 34.8469 24.5 34.5275V31.5015C24.5 30.8569 23.9779 30.3348 23.3333 30.3348H18.6667V26.8348H25.149C26.7225 26.8333 27.9985 25.5573 28 23.9837C28.0073 23.3071 27.7652 22.6523 27.3204 22.1433C27.02 21.8371 26.8465 21.4302 26.8333 21.0015C26.8333 19.7371 28.436 18.6681 30.3333 18.6681C32.2306 18.6681 33.8333 19.7371 33.8333 21.0015C33.8202 21.4302 33.6452 21.8371 33.3462 22.1433C32.9015 22.6523 32.6594 23.3071 32.6667 23.9837C32.6681 25.5573 33.9442 26.8333 35.5177 26.8348H42V33.3171V33.3156ZM58.3333 27.351C58.326 28.0277 58.5681 28.6825 59.0129 29.1915C59.3133 29.4977 59.4869 29.9046 59.5 30.3333C59.5 31.5977 57.8973 32.6667 56 32.6667C54.1027 32.6667 52.5 31.5977 52.5 30.3333C52.5131 29.9046 52.6881 29.4977 52.9871 29.1915C53.4319 28.6825 53.674 28.0277 53.6667 27.351C53.6652 25.7775 52.3892 24.5015 50.8156 24.5H44.3333V18.0177C44.3333 17.8456 44.4179 17.6837 44.5623 17.5875C45.0363 17.2754 45.6487 18.0104 46.0454 18.2175C46.5967 18.5092 47.2106 18.6623 47.8333 18.6652C50.4058 18.6652 52.5 16.049 52.5 12.8319C52.5 9.61479 50.4058 6.99854 47.8333 6.99854C46.8329 7.01021 45.8719 7.39521 45.1398 8.07771C45.0202 8.16375 44.8715 8.19729 44.7256 8.17396C44.4471 8.10833 44.3333 7.93187 44.3333 7.6475V2.33333H64.1667C66.099 2.33625 67.6637 3.90104 67.6667 5.83333V24.5H61.1844C59.6108 24.5015 58.3348 25.7775 58.3333 27.351Z" fill="white"/>
<path d="M67.079 53.7133C66.0611 53.5442 65.0198 53.8314 64.2323 54.4994C64.209 54.5183 64.1871 54.5387 64.1652 54.5592C62.8381 53.3692 60.8271 53.3692 59.5 54.5592C58.5477 53.706 57.2061 53.4392 56 53.865V47.9106C56 45.9521 54.3973 44.2983 52.4402 44.3319C50.5313 44.3669 49.0029 45.9229 49 47.8319V60.9379L45.7085 59.0464C44.2706 58.2196 42.4375 58.6279 41.4881 59.9885C40.495 61.4104 40.8144 63.3646 42.2085 64.3971L49.4886 69.7812C49.6869 69.9227 49.9231 69.9985 50.1667 69.9985H68.8333C69.4779 69.9985 70 69.4764 70 68.8319V57.2906C70 55.5217 68.7444 53.9846 67.079 53.7133ZM67.6667 67.6667H50.54L43.4438 62.6529C42.9858 62.3292 42.8765 61.6962 43.2002 61.2369C43.2031 61.2325 43.2075 61.2267 43.2104 61.2223C43.5225 60.7979 44.1073 60.6812 44.5565 60.9554L49.5644 64.0004C50.0092 64.2673 50.5779 64.2075 50.9585 63.8546C51.2021 63.6227 51.3363 63.2989 51.3319 62.9635V47.8742C51.3231 47.25 51.7971 46.725 52.4183 46.6681C53.0615 46.6244 53.6186 47.1114 53.6623 47.7546C53.6638 47.7808 53.6652 47.8056 53.6652 47.8319V57.1229C53.6565 57.7544 54.1421 58.2837 54.7721 58.3304C55.4152 58.3639 55.965 57.8696 55.9985 57.2264C55.9985 57.2206 55.9985 57.2133 55.9985 57.2075C56.019 56.6023 56.4419 56.0671 57.0427 56.0058C57.6844 55.9387 58.259 56.4039 58.3261 57.0456C58.329 57.0748 58.3304 57.1025 58.3319 57.1317C58.3319 57.7339 58.7781 58.2444 59.3746 58.326C60.0148 58.3946 60.5894 57.9308 60.6579 57.2892C60.6608 57.2585 60.6638 57.2279 60.6638 57.1958C60.6638 56.5935 61.11 56.0846 61.7079 56.0044C62.3496 55.9373 62.9242 56.4025 62.9913 57.0442C62.9942 57.0704 62.9956 57.0967 62.9971 57.1229C63.019 57.7485 63.4754 58.2954 64.0996 58.3289C64.7427 58.3654 65.2925 57.8739 65.329 57.2308C65.329 57.2104 65.3304 57.19 65.3304 57.1681C65.3304 56.5425 65.835 56.035 66.4606 56.0321C67.2992 56.0321 67.6638 56.6606 67.6638 57.2877V67.6623L67.6667 67.6667Z" fill="white"/>
<path d="M19.8333 39.6667C14.035 39.6667 9.33334 44.3684 9.33334 50.1667C9.33334 55.965 14.035 60.6667 19.8333 60.6667C25.6317 60.6667 30.3333 55.965 30.3333 50.1667C30.3275 44.3698 25.6302 39.6725 19.8333 39.6667ZM19.8333 58.3334C15.3227 58.3334 11.6667 54.6773 11.6667 50.1667C11.6667 45.6561 15.3227 42 19.8333 42C24.344 42 28 45.6561 28 50.1667C27.9942 54.6744 24.3411 58.3275 19.8333 58.3334Z" fill="white"/>
<path d="M19.8333 45.5C17.2564 45.5 15.1667 47.5898 15.1667 50.1667C15.1667 52.7435 17.2564 54.8333 19.8333 54.8333C22.4102 54.8333 24.5 52.7435 24.5 50.1667C24.4971 47.5913 22.4087 45.5029 19.8333 45.5ZM19.8333 52.5C18.5442 52.5 17.5 51.4558 17.5 50.1667C17.5 48.8775 18.5442 47.8333 19.8333 47.8333C21.1225 47.8333 22.1667 48.8775 22.1667 50.1667C22.1652 51.4544 21.121 52.4985 19.8333 52.5Z" fill="white"/>
</g>
<defs>
<clipPath id="clip0_34_8801">
<rect width="70" height="70" fill="white"/>
</clipPath>
</defs>
</svg>
