<svg width="81" height="77" viewBox="0 0 81 77" fill="none" xmlns="http://www.w3.org/2000/svg">
<g clip-path="url(#clip0_34_8771)">
<path d="M45.1978 33.1141C45.0268 32.3498 44.3473 31.8053 43.5642 31.8053H40.1305C39.3459 31.8053 38.6679 32.3498 38.4969 33.1141L37.5741 37.2445C36.6325 37.5302 35.727 37.9068 34.8686 38.3682L31.2906 36.0958C30.6283 35.6752 29.7636 35.771 29.2097 36.3249L26.7851 38.7495C26.2311 39.3035 26.1354 40.1666 26.5544 40.8289L28.822 44.41C28.3575 45.2763 27.9825 46.1818 27.7 47.1155L23.5727 48.0383C22.8084 48.2093 22.2639 48.8889 22.2639 49.6719V53.1056C22.2639 53.8903 22.8084 54.5682 23.5727 54.7393L27.7 55.6604C27.9825 56.5989 28.3575 57.5044 28.822 58.3675L26.5559 61.9471C26.1369 62.6094 26.2327 63.4725 26.7866 64.0265L29.2112 66.4511C29.7652 67.005 30.6283 67.1008 31.2906 66.6818L34.8717 64.4141C35.738 64.8786 36.6419 65.2537 37.5772 65.5361L38.5 69.6634C38.6711 70.4277 39.349 70.9723 40.1337 70.9723H43.5673C44.352 70.9723 45.0299 70.4277 45.201 69.6634L46.1237 65.5361C47.0622 65.2537 47.9677 64.8786 48.8308 64.4141L52.4104 66.6802C53.0727 67.0992 53.9358 67.0035 54.4897 66.4495L56.9143 64.0249C57.4683 63.4709 57.564 62.6078 57.145 61.9456L54.8774 58.3644C55.3419 57.4981 55.717 56.5942 55.9994 55.6589L60.1267 54.7361C60.891 54.5651 61.4355 53.8856 61.4355 53.1025V49.6688C61.4355 48.8842 60.891 48.2062 60.1267 48.0352L55.9994 47.1124C55.7185 46.1787 55.3435 45.2747 54.8774 44.4069L57.145 40.8257C57.564 40.1635 57.4683 39.3003 56.9143 38.7464L54.4897 36.3218C53.9358 35.7678 53.0711 35.6721 52.4088 36.0927L48.8308 38.365C47.9724 37.9021 47.0669 37.527 46.1253 37.2414L45.2025 33.111L45.1978 33.1141ZM49.7583 41.7422L53.0664 39.6425L53.5952 40.1713L51.5002 43.481C51.155 44.0271 51.155 44.7255 51.5002 45.2716C52.2127 46.3984 52.718 47.6161 53.0005 48.892C53.1417 49.526 53.636 50.0203 54.27 50.1631L58.0835 51.0153V51.7654L54.27 52.6176C53.636 52.7588 53.1417 53.2547 53.0005 53.8887C52.7164 55.1661 52.2111 56.3839 51.5002 57.5091C51.155 58.0552 51.155 58.7536 51.5002 59.2997L53.5952 62.6094L53.0648 63.1398L49.7551 61.0448C49.2074 60.698 48.5075 60.6995 47.9614 61.0463C46.8488 61.7541 45.6325 62.2578 44.3441 62.545C43.7101 62.6863 43.2158 63.1806 43.073 63.8146L42.2208 67.628H41.4707L40.6186 63.8146C40.4773 63.1806 39.9814 62.6863 39.3474 62.545C38.07 62.261 36.8522 61.7557 35.727 61.0448C35.1809 60.6995 34.4826 60.6995 33.9364 61.0448L30.6267 63.1398L30.0963 62.6094L32.1914 59.2997C32.5382 58.752 32.5366 58.0521 32.1898 57.506C31.482 56.3933 30.9767 55.1755 30.6911 53.8887C30.5499 53.2547 30.0555 52.7604 29.4215 52.6176L25.6081 51.7654V51.0153L29.4215 50.1631C30.0555 50.0219 30.5499 49.526 30.6911 48.892C30.9751 47.6146 31.4805 46.3968 32.1914 45.2716C32.5366 44.7255 32.5366 44.0271 32.1914 43.481L30.0963 40.1713L30.6252 39.6425L33.9333 41.7422C34.4826 42.0906 35.184 42.089 35.7317 41.7406C36.8334 41.0376 38.0527 40.5307 39.3553 40.2341C39.9861 40.0913 40.4773 39.5969 40.6186 38.9661L41.4707 35.1526H42.2208L43.073 38.9661C43.2142 39.5969 43.7054 40.0897 44.3363 40.2341C45.6388 40.5307 46.8566 41.036 47.9583 41.7406C48.506 42.0906 49.2074 42.0922 49.7567 41.7422H49.7583Z" fill="white"/>
<path d="M35.0632 51.395C35.0632 55.1331 38.1092 58.1745 41.8536 58.1745C45.598 58.1745 48.6331 55.1331 48.6331 51.395C48.6331 47.6569 45.5917 44.6046 41.8536 44.6046C38.1092 44.6046 35.0632 47.6507 35.0632 51.395ZM45.2841 51.395C45.2841 53.2876 43.7447 54.8256 41.8536 54.8256C39.9626 54.8256 38.4121 53.2861 38.4121 51.395C38.4121 49.504 39.9563 47.9535 41.8536 47.9535C43.7462 47.9535 45.2841 49.4977 45.2841 51.395Z" fill="white"/>
<path d="M36.8915 22.5981C36.8915 25.8293 39.5201 28.4564 42.7497 28.4564C45.9794 28.4564 48.608 25.8278 48.608 22.5981C48.608 19.3685 45.9794 16.7399 42.7497 16.7399C39.5201 16.7399 36.8915 19.3685 36.8915 22.5981ZM45.2606 22.5981C45.2606 23.9823 44.1338 25.109 42.7497 25.109C41.3656 25.109 40.2388 23.9823 40.2388 22.5981C40.2388 21.214 41.3656 20.0872 42.7497 20.0872C44.1338 20.0872 45.2606 21.214 45.2606 22.5981Z" fill="white"/>
<path d="M77.0016 8.37071C77.9263 8.37071 78.676 7.62103 78.676 6.69625C78.676 5.77147 77.9263 5.02179 77.0016 5.02179C76.0768 5.02179 75.3271 5.77147 75.3271 6.69625C75.3271 7.62103 76.0768 8.37071 77.0016 8.37071Z" fill="white"/>
<path d="M60.2617 15.0654C61.1865 15.0654 61.9361 14.3157 61.9361 13.391C61.9361 12.4662 61.1865 11.7165 60.2617 11.7165C59.3369 11.7165 58.5872 12.4662 58.5872 13.391C58.5872 14.3157 59.3369 15.0654 60.2617 15.0654Z" fill="white"/>
<path d="M35.1526 6.69627C36.0774 6.69627 36.8271 5.94659 36.8271 5.02181C36.8271 4.09703 36.0774 3.34735 35.1526 3.34735C34.2279 3.34735 33.4782 4.09703 33.4782 5.02181C33.4782 5.94659 34.2279 6.69627 35.1526 6.69627Z" fill="white"/>
<path d="M6.69627 46.8707C7.62104 46.8707 8.37072 46.121 8.37072 45.1963C8.37072 44.2715 7.62104 43.5218 6.69627 43.5218C5.77149 43.5218 5.02181 44.2715 5.02181 45.1963C5.02181 46.121 5.77149 46.8707 6.69627 46.8707Z" fill="white"/>
<path d="M26.7835 71.9798C27.7083 71.9798 28.458 71.2301 28.458 70.3053C28.458 69.3805 27.7083 68.6309 26.7835 68.6309C25.8587 68.6309 25.109 69.3805 25.109 70.3053C25.109 71.2301 25.8587 71.9798 26.7835 71.9798Z" fill="white"/>
<path d="M56.9143 71.9798C57.8391 71.9798 58.5888 71.2301 58.5888 70.3053C58.5888 69.3805 57.8391 68.6309 56.9143 68.6309C55.9896 68.6309 55.2399 69.3805 55.2399 70.3053C55.2399 71.2301 55.9896 71.9798 56.9143 71.9798Z" fill="white"/>
<path d="M78.6745 11.7181H65.544C64.6197 11.7181 63.8695 12.4682 63.8695 13.3926C63.8695 14.3169 64.6197 15.067 65.544 15.067H77.0016V31.8775L44.3222 7.03684C43.7415 6.59586 42.9427 6.58173 42.348 6.99917L6.69627 32.0297V15.0655H16.7399C17.6642 15.0655 18.4143 14.3153 18.4143 13.391V7.37895H21.8747V13.391C21.8747 14.3153 22.6248 15.0655 23.5491 15.0655H26.7835C27.7078 15.0655 28.458 14.3153 28.458 13.391C28.458 12.4667 27.7078 11.7165 26.7835 11.7165H25.222V5.70449C25.222 4.78016 24.4719 4.03003 23.5476 4.03003H16.7383C15.814 4.03003 15.0639 4.78016 15.0639 5.70449V11.7165H5.02181C4.09748 11.7165 3.34735 12.4667 3.34735 13.391V35.25C3.34735 36.6012 4.87429 37.3984 5.9838 36.62L9.97927 33.8156V73.6527H6.69627C5.77194 73.6527 5.02181 74.4028 5.02181 75.3271C5.02181 76.2515 5.77194 77.0016 6.69627 77.0016H77.0016C77.9259 77.0016 78.676 76.2515 78.676 75.3271C78.676 74.4028 77.9259 73.6527 77.0016 73.6527H73.7186V33.5849L77.6623 36.5823C78.7514 37.4109 80.3489 36.642 80.3489 35.25V13.391C80.3489 12.4667 79.5988 11.7165 78.6745 11.7165V11.7181ZM70.3696 68.6324H61.9346C61.0103 68.6324 60.2601 69.3826 60.2601 70.3069C60.2601 71.2312 61.0103 71.9814 61.9346 71.9814H70.3696V73.6558H13.3266V71.9814H21.7617C22.686 71.9814 23.4361 71.2312 23.4361 70.3069C23.4361 69.3826 22.686 68.6324 21.7617 68.6324H13.3266V31.4664L43.2707 10.4438L70.3712 31.0426V68.6324H70.3696Z" fill="white"/>
<path d="M8.36916 62.7726C8.36916 60.4657 6.49226 58.5872 4.18379 58.5872C1.87533 58.5872 0 60.4657 0 62.7726C0 65.0795 1.8769 66.9579 4.18536 66.9579C6.49382 66.9579 8.37072 65.081 8.37072 62.7726H8.36916ZM4.18379 63.609C3.72241 63.609 3.34735 63.234 3.34735 62.7726C3.34735 62.3112 3.72241 61.9361 4.18379 61.9361C4.64517 61.9361 5.02024 62.3112 5.02024 62.7726C5.02024 63.234 4.64517 63.609 4.18379 63.609Z" fill="white"/>
<path d="M66.1199 8.36916C68.4268 8.36916 70.3053 6.49226 70.3053 4.18379C70.3053 1.87533 68.4284 0 66.1199 0C63.8115 0 61.9346 1.8769 61.9346 4.18536C61.9346 6.49382 63.8115 8.37072 66.1199 8.37072V8.36916ZM66.1199 3.34735C66.5813 3.34735 66.9564 3.72241 66.9564 4.18379C66.9564 4.64517 66.5813 5.02024 66.1199 5.02024C65.6586 5.02024 65.2835 4.64517 65.2835 4.18379C65.2835 3.72241 65.6586 3.34735 66.1199 3.34735Z" fill="white"/>
<path d="M61.9361 43.5218C62.8605 43.5218 63.6106 42.7717 63.6106 41.8473V35.1511C63.6106 34.2268 62.8605 33.4766 61.9361 33.4766C61.0118 33.4766 60.2617 34.2268 60.2617 35.1511V41.8473C60.2617 42.7717 61.0118 43.5218 61.9361 43.5218Z" fill="white"/>
<path d="M66.958 60.2617C67.8823 60.2617 68.6324 59.5116 68.6324 58.5872V38.5C68.6324 37.5757 67.8823 36.8256 66.958 36.8256C66.0336 36.8256 65.2835 37.5757 65.2835 38.5V58.5872C65.2835 59.5116 66.0336 60.2617 66.958 60.2617Z" fill="white"/>
<path d="M23.4346 41.8489V35.1527C23.4346 34.2283 22.6844 33.4782 21.7601 33.4782C20.8358 33.4782 20.0857 34.2283 20.0857 35.1527V41.8489C20.0857 42.7733 20.8358 43.5234 21.7601 43.5234C22.6844 43.5234 23.4346 42.7733 23.4346 41.8489Z" fill="white"/>
<path d="M16.7399 36.8271C15.8156 36.8271 15.0654 37.5772 15.0654 38.5015V58.5888C15.0654 59.5131 15.8156 60.2632 16.7399 60.2632C17.6642 60.2632 18.4143 59.5131 18.4143 58.5888V38.5015C18.4143 37.5772 17.6642 36.8271 16.7399 36.8271Z" fill="white"/>
</g>
<defs>
<clipPath id="clip0_34_8771">
<rect width="80.3489" height="77" fill="white"/>
</clipPath>
</defs>
</svg>
