<svg width="69" height="69" viewBox="0 0 69 69" fill="none" xmlns="http://www.w3.org/2000/svg">
<g clip-path="url(#clip0_34_8785)">
<path d="M14.4677 45.6346C9.55845 45.6346 5.56451 49.6285 5.56451 54.5378C5.56451 59.4471 9.55845 63.441 14.4677 63.441C19.377 63.441 23.371 59.4471 23.371 54.5378C23.371 49.6285 19.377 45.6346 14.4677 45.6346ZM14.4677 61.2152C10.7854 61.2152 7.79032 58.2201 7.79032 54.5378C7.79032 50.8555 10.7854 47.8604 14.4677 47.8604C18.1501 47.8604 21.1452 50.8555 21.1452 54.5378C21.1452 58.2201 18.1501 61.2152 14.4677 61.2152Z" fill="white"/>
<path d="M14.4677 50.0806C12.011 50.0806 10.0106 52.0811 10.0106 54.5378C10.0106 56.9945 12.011 58.9964 14.4677 58.9964C16.9245 58.9964 18.9249 56.9959 18.9249 54.5378C18.9249 52.0797 16.9245 50.0806 14.4677 50.0806ZM14.4677 56.7706C13.2366 56.7706 12.2364 55.7703 12.2364 54.5378C12.2364 53.3053 13.2366 52.3064 14.4677 52.3064C15.6989 52.3064 16.6991 53.3067 16.6991 54.5378C16.6991 55.769 15.6989 56.7706 14.4677 56.7706Z" fill="white"/>
<path d="M69 28.9355V26.7097C69 25.4827 68.0012 24.4839 66.7742 24.4839V13.3548C66.7742 10.8995 64.7779 8.90322 62.3226 8.90322C60.9871 8.90322 59.8005 9.50697 58.9839 10.4418C58.1673 9.50697 56.9806 8.90322 55.6452 8.90322C54.3097 8.90322 53.123 9.50697 52.3065 10.4418C51.4899 9.50697 50.3032 8.90322 48.9677 8.90322C46.5124 8.90322 44.5161 10.8995 44.5161 13.3548V24.4839H28.7936L28.3637 20.0323H34.5C36.3405 20.0323 37.8387 18.534 37.8387 16.6935V3.33871C37.8387 1.49825 36.3405 0 34.5 0H12.2419C10.4015 0 8.90323 1.49825 8.90323 3.33871V16.6935C8.90323 18.534 10.4015 20.0323 12.2419 20.0323H18.3768L17.947 24.4839H11.1276C9.90067 24.4839 8.90184 25.4827 8.90184 26.7097V28.9355C8.90184 30.1625 9.90067 31.1613 11.1276 31.1613V40.0701H10.3403L9.62244 42.1039C9.44716 42.1735 9.27466 42.2444 9.09938 42.3209L7.15319 41.3903L1.31879 47.2247L2.24946 49.1695C2.17294 49.3433 2.10061 49.5172 2.03105 49.6939L0 50.4103V58.6639L2.03244 59.3803C2.102 59.5556 2.17433 59.7309 2.25085 59.9062L1.32018 61.851L7.15597 67.6854L9.10077 66.7547C9.27466 66.8312 9.44855 66.905 9.62522 66.9731L10.343 69.0056H18.5952L19.313 66.9731C19.4883 66.9036 19.6622 66.8312 19.8375 66.7547L21.7823 67.6854L27.1409 62.3295H57.0238L67.3919 57.1462C68.3823 56.6482 69 55.6507 69 54.5392C69 53.4277 68.3823 52.4303 67.3891 51.9322L66.7742 51.6248V31.1613C68.0012 31.1613 69 30.1625 69 28.9355ZM62.3226 11.129C63.5496 11.129 64.5484 12.1279 64.5484 13.3548V24.4839H60.0968V13.3548C60.0968 12.1279 61.0956 11.129 62.3226 11.129ZM55.6452 11.129C56.8721 11.129 57.871 12.1279 57.871 13.3548V24.4839H53.4194V13.3548C53.4194 12.1279 54.4182 11.129 55.6452 11.129ZM46.7419 13.3548C46.7419 12.1279 47.7408 11.129 48.9677 11.129C50.1947 11.129 51.1936 12.1279 51.1936 13.3548V24.4839H46.7419V13.3548ZM12.2419 17.8064C11.6284 17.8064 11.129 17.3084 11.129 16.6935V3.33871C11.129 2.72383 11.6284 2.22581 12.2419 2.22581H34.5C35.1135 2.22581 35.6129 2.72383 35.6129 3.33871V16.6935C35.6129 17.3084 35.1135 17.8064 34.5 17.8064H28.1495L27.7196 13.3548H19.0209L18.591 17.8064H12.2405H12.2419ZM21.0422 15.5806H25.6983L26.5567 24.4839H20.1853L21.0422 15.5806ZM11.129 26.7097H66.7742V28.9355H11.129V26.7097ZM57.021 46.7475H27.1368L21.7809 41.3917L19.8347 42.3223C19.6594 42.2458 19.4869 42.1735 19.3117 42.1053L18.5938 40.0715H17.8065V31.1613H60.0968V48.2861L57.021 46.7475ZM26.686 59.9048C26.7625 59.7309 26.8363 59.557 26.9044 59.3789L28.9369 58.6639V57.8765H53.8464L54.9593 60.1023H26.7806L26.6874 59.9048H26.686ZM54.1942 55.6507H28.9355V53.4249H54.204L55.8664 54.5336L54.1942 55.6507ZM53.8423 51.1991H28.9355V50.4117L26.903 49.6953C26.8335 49.52 26.7612 49.3461 26.6846 49.1708L26.7792 48.9733H54.9552L53.8409 51.2005L53.8423 51.1991ZM13.3548 31.1613H15.5806V40.0701H13.3548V31.1613ZM24.9875 58.145C24.84 58.5735 24.6619 59.0033 24.456 59.4221L24.2196 59.9062L24.929 61.3905L21.3204 64.9991L19.8361 64.2882L19.352 64.5261C18.9305 64.7334 18.4992 64.9129 18.0749 65.0589L17.5658 65.2342L17.0191 66.7811H11.9164L11.3697 65.2342L10.8605 65.0589C10.4349 64.9115 10.005 64.7334 9.58349 64.5261L9.09938 64.2882L7.61504 64.9991L4.00645 61.3905L4.71593 59.9062L4.47944 59.4221C4.27355 59.0019 4.09409 58.5735 3.94802 58.145L3.77274 57.6359L2.22581 57.0891V51.9879L3.77552 51.4412L3.95081 50.932C4.09688 50.5063 4.27633 50.0779 4.48222 49.6563L4.71871 49.1722L4.00923 47.6879L7.61782 44.0793L9.10077 44.7888L9.58349 44.5523C10.0092 44.3436 10.4404 44.1656 10.8633 44.0195L11.3725 43.8442L11.9192 42.2959H17.0219L17.5686 43.8442L18.0777 44.0195C18.5006 44.1656 18.9319 44.345 19.3576 44.5523L19.8403 44.7888L21.3232 44.0793L24.9318 47.6879L24.2223 49.1722L24.4588 49.6563C24.6661 50.0779 24.8442 50.5077 24.9902 50.932L25.1655 51.4412L26.7111 51.9879V57.0891L25.1614 57.6359L24.9875 58.145ZM66.3944 55.1541L57.2561 59.7239L55.9665 57.1448L59.8756 54.5323L55.9665 51.9267L57.2547 49.3531L66.393 53.9229C66.6295 54.0412 66.7742 54.2763 66.7742 54.5378C66.7742 54.7994 66.6295 55.0358 66.393 55.1527L66.3944 55.1541ZM64.5498 50.5119L62.324 49.399V31.1613H64.5498V50.5119Z" fill="white"/>
</g>
<defs>
<clipPath id="clip0_34_8785">
<rect width="69" height="69.0056" fill="white"/>
</clipPath>
</defs>
</svg>
