<svg width="53" height="77" viewBox="0 0 53 77" fill="none" xmlns="http://www.w3.org/2000/svg">
<g clip-path="url(#clip0_34_8739)">
<path d="M26.1905 33.9147C22.0039 33.9147 18.4662 30.3771 18.4662 26.1905C18.4662 22.0038 22.0039 18.4662 26.1905 18.4662C30.3771 18.4662 33.9147 22.0038 33.9147 26.1905C33.9147 30.3771 30.3771 33.9147 26.1905 33.9147ZM26.1905 21.5474C23.6735 21.5474 21.5474 23.6735 21.5474 26.1905C21.5474 28.7074 23.6735 30.8335 26.1905 30.8335C28.7075 30.8335 30.8335 28.7074 30.8335 26.1905C30.8335 23.6735 28.7075 21.5474 26.1905 21.5474Z" fill="white"/>
<path d="M19.9202 17.097C19.5215 17.097 19.1267 16.941 18.8302 16.6464L16.5924 14.4067C15.9897 13.8039 15.9897 12.8314 16.5924 12.2286C17.1952 11.6259 18.1677 11.6259 18.7705 12.2286L20.2032 13.6653C20.6462 13.4515 21.1007 13.2647 21.5628 13.101V11.0751C21.5628 10.2239 22.2523 9.53448 23.1035 9.53448C23.9546 9.53448 24.6441 10.2239 24.6441 11.0751V14.2411C24.6441 14.944 24.1684 15.5564 23.4886 15.7335C22.5084 15.9858 21.5725 16.3748 20.702 16.8871C20.4594 17.0277 20.1878 17.0989 19.9202 17.0989V17.097Z" fill="white"/>
<path d="M14.2353 24.6441H11.0693C10.2181 24.6441 9.52872 23.9547 9.52872 23.1035C9.52872 22.2523 10.2181 21.5629 11.0693 21.5629H13.0972C13.2609 21.0988 13.4477 20.6462 13.6614 20.2033L12.2267 18.7705C11.624 18.1677 11.624 17.1952 12.2267 16.5925C12.8276 15.9897 13.802 15.9897 14.4048 16.5925L16.6444 18.8302C17.1413 19.327 17.2395 20.0974 16.8813 20.702C16.3691 21.5706 15.98 22.5103 15.7258 23.4886C15.5506 24.1704 14.9363 24.6441 14.2353 24.6441Z" fill="white"/>
<path d="M13.3148 36.241C12.92 36.241 12.5252 36.0908 12.2248 35.7904C11.622 35.1877 11.622 34.2151 12.2248 33.6124L13.6595 32.1796C13.4477 31.7367 13.2589 31.2822 13.0952 30.82H11.0674C10.2162 30.82 9.52679 30.1306 9.52679 29.2794C9.52679 28.4282 10.2162 27.7388 11.0674 27.7388H14.2334C14.9363 27.7388 15.5487 28.2144 15.7239 28.8942C15.9762 29.8725 16.3671 30.8104 16.8794 31.6808C17.2376 32.2855 17.1374 33.0558 16.6425 33.5527L14.4028 35.7904C14.1024 36.0908 13.7076 36.241 13.3129 36.241H13.3148Z" fill="white"/>
<path d="M23.1054 42.8542C22.2542 42.8542 21.5648 42.1647 21.5648 41.3136V39.2838C21.1026 39.1201 20.6481 38.9333 20.2052 38.7195L18.7724 40.1542C18.1716 40.757 17.1971 40.757 16.5943 40.1542C15.9916 39.5534 15.9916 38.579 16.5943 37.9762L18.8321 35.7365C19.3289 35.2397 20.0993 35.1395 20.7039 35.4997C21.5725 36.0119 22.5103 36.4009 23.4886 36.6532C24.1703 36.8265 24.6441 37.4428 24.6441 38.1457V41.3136C24.6441 42.1647 23.9546 42.8542 23.1054 42.8542Z" fill="white"/>
<path d="M29.2775 42.8541C28.4263 42.8541 27.7369 42.1647 27.7369 41.3135V38.1456C27.7369 37.4408 28.2125 36.8284 28.8923 36.6532C29.8726 36.4009 30.8085 36.0119 31.6789 35.4996C32.2855 35.1472 33.0559 35.2416 33.5508 35.7365L35.7885 37.9762C36.3913 38.5789 36.3913 39.5514 35.7885 40.1542C35.1858 40.757 34.2132 40.757 33.6105 40.1542L32.1758 38.7195C31.7329 38.9313 31.2803 39.1201 30.8162 39.2818V41.3116C30.8162 42.1628 30.1268 42.8522 29.2756 42.8522L29.2775 42.8541Z" fill="white"/>
<path d="M39.0662 36.241C38.6714 36.241 38.2766 36.0908 37.9762 35.7904L35.7365 33.5527C35.2397 33.0558 35.1415 32.2855 35.4996 31.6808C36.0119 30.8123 36.4009 29.8725 36.6551 28.8942C36.8284 28.2144 37.4447 27.7388 38.1457 27.7388H41.3135C42.1647 27.7388 42.8542 28.4282 42.8542 29.2794C42.8542 30.1306 42.1647 30.82 41.3135 30.82H39.2857C39.122 31.2841 38.9333 31.7367 38.7234 32.1796L40.1581 33.6143C40.7609 34.2171 40.7609 35.1896 40.1581 35.7923C39.8538 36.0928 39.461 36.243 39.0662 36.243V36.241Z" fill="white"/>
<path d="M32.4608 17.097C32.1912 17.097 31.9216 17.0257 31.6789 16.8832C30.8104 16.371 29.8726 15.982 28.8904 15.7297C28.2125 15.5525 27.7369 14.9382 27.7369 14.2372V11.0713C27.7369 10.2201 28.4263 9.53064 29.2775 9.53064C30.1287 9.53064 30.8181 10.2201 30.8181 11.0713V13.0972C31.2822 13.2609 31.7348 13.4496 32.1777 13.6614L33.6124 12.2248C34.2152 11.622 35.1877 11.622 35.7905 12.2248C36.3932 12.8276 36.3932 13.8001 35.7905 14.4028L33.5527 16.6425C33.2561 16.941 32.8633 17.097 32.4627 17.097H32.4608Z" fill="white"/>
<path d="M41.3116 24.6441H38.1457C37.4428 24.6441 36.8304 24.1684 36.6551 23.4886C36.4009 22.5103 36.0119 21.5725 35.4997 20.702C35.1434 20.0974 35.2416 19.327 35.7365 18.8302L37.9762 16.5925C38.579 15.9897 39.5515 15.9897 40.1543 16.5925C40.757 17.1952 40.757 18.1677 40.1543 18.7705L38.7196 20.2052C38.9314 20.6481 39.1182 21.1007 39.2819 21.5648H41.3097C42.1609 21.5648 42.8503 22.2542 42.8503 23.1054C42.8503 23.9566 42.1628 24.646 41.3116 24.646V24.6441Z" fill="white"/>
<path d="M13.3148 19.223C13.024 19.223 12.7293 19.1402 12.4674 18.9669C11.7588 18.4989 11.5623 17.5438 12.0322 16.8331C13.2994 14.9131 14.9151 13.2974 16.8351 12.0303C17.5476 11.5623 18.5028 11.7568 18.9708 12.4655C19.4387 13.1761 19.2442 14.1332 18.5355 14.6012C16.966 15.6372 15.643 16.9602 14.607 18.5297C14.3085 18.9784 13.8174 19.2211 13.3167 19.2211L13.3148 19.223Z" fill="white"/>
<path d="M23.1035 12.6119C22.3871 12.6119 21.7439 12.1092 21.5956 11.3774C21.4261 10.5436 21.9634 9.73283 22.7973 9.55951C25.0504 9.10118 27.3344 9.10118 29.5875 9.55951C30.4214 9.7309 30.9587 10.5436 30.7873 11.3774C30.6159 12.2113 29.7994 12.7467 28.9694 12.5791C27.1245 12.2017 25.2545 12.2017 23.4116 12.5791C23.3076 12.6003 23.2036 12.6119 23.1015 12.6119H23.1035Z" fill="white"/>
<path d="M39.0662 19.2231C38.5674 19.2231 38.0763 18.9804 37.7798 18.5317C36.7418 16.9603 35.4188 15.6392 33.8493 14.6031C33.1386 14.1352 32.9441 13.1781 33.414 12.4675C33.8801 11.7549 34.843 11.5623 35.5478 12.0322C37.4659 13.2994 39.0816 14.9151 40.3507 16.8351C40.8205 17.5438 40.6241 18.499 39.9154 18.9689C39.6535 19.1422 39.3589 19.225 39.0662 19.225V19.2231Z" fill="white"/>
<path d="M41.3135 30.8181C41.2115 30.8181 41.1075 30.8065 41.0035 30.7853C40.1696 30.6159 39.6323 29.8013 39.8037 28.9674C40.1793 27.1244 40.1793 25.2526 39.8037 23.4096C39.6343 22.5758 40.1696 21.7631 41.0035 21.5917C41.8316 21.4261 42.65 21.9595 42.8214 22.7934C43.2817 25.0465 43.2817 27.3286 42.8214 29.5817C42.6712 30.3135 42.0319 30.8181 41.3135 30.8181Z" fill="white"/>
<path d="M34.7005 40.6068C34.2017 40.6068 33.7106 40.3641 33.4141 39.9154C32.9442 39.2048 33.1406 38.2496 33.8493 37.7798C35.4207 36.7418 36.7418 35.4188 37.7817 33.8512C38.2516 33.1386 39.2048 32.9461 39.9174 33.416C40.6261 33.8858 40.8225 34.841 40.3526 35.5497C39.0854 37.4678 37.4697 39.0835 35.5517 40.3526C35.2898 40.5259 34.9951 40.6087 34.7024 40.6087L34.7005 40.6068Z" fill="white"/>
<path d="M26.1905 43.1661C25.0562 43.1661 23.9219 43.0525 22.7973 42.8195C21.9634 42.652 21.4242 41.8374 21.5956 41.0016C21.7651 40.1677 22.5797 39.6323 23.4135 39.8018C25.2584 40.1773 27.1264 40.1773 28.9713 39.8018C29.8013 39.6343 30.6178 40.1677 30.7892 41.0016C30.9587 41.8374 30.4233 42.65 29.5895 42.8195C28.461 43.0525 27.3267 43.1661 26.1924 43.1661H26.1905Z" fill="white"/>
<path d="M11.0674 30.8181C10.351 30.8181 9.70779 30.3155 9.55951 29.5837C9.10118 27.3306 9.10118 25.0485 9.55951 22.7954C9.7309 21.9596 10.5436 21.4223 11.3774 21.5937C12.2113 21.7632 12.7486 22.5797 12.5791 23.4135C12.2017 25.2546 12.2017 27.1264 12.5791 28.9675C12.7486 29.8013 12.2113 30.6159 11.3774 30.7873C11.2734 30.8066 11.1695 30.8181 11.0674 30.8181Z" fill="white"/>
<path d="M17.6805 40.6068C17.3897 40.6068 17.0932 40.5259 16.8332 40.3507C14.9132 39.0816 13.2994 37.4659 12.0303 35.5478C11.5623 34.8372 11.7568 33.882 12.4655 33.4141C13.1781 32.9461 14.1332 33.1406 14.6012 33.8493C15.6373 35.4169 16.9603 36.7399 18.5298 37.7779C19.2404 38.2477 19.4349 39.2029 18.965 39.9135C18.6684 40.3622 18.1774 40.6049 17.6786 40.6049L17.6805 40.6068Z" fill="white"/>
<path d="M26.1905 67.7871C25.5973 67.7871 25.0331 67.4443 24.7789 66.8666C22.2234 61.0546 18.0541 56.4366 13.6422 51.549C9.4382 46.8944 5.08789 42.0781 2.32055 36.1621C0.783789 32.8806 0.00385154 29.524 0 26.1943C0 25.3431 0.6875 24.6518 1.53869 24.6498C2.38988 24.6498 3.07738 25.3393 3.07931 26.1866C3.08316 29.0656 3.76681 31.9832 5.10907 34.8545C7.67997 40.3526 11.6856 44.7876 15.9261 49.4827C20.3092 54.3356 24.8424 59.3541 27.5982 65.6264C27.941 66.4063 27.5867 67.3153 26.8087 67.6561C26.6064 67.7428 26.3965 67.7852 26.1886 67.7852L26.1905 67.7871Z" fill="white"/>
<path d="M26.1905 67.7871C25.9844 67.7871 25.7726 67.7486 25.5723 67.6581C24.7924 67.3172 24.438 66.4083 24.7789 65.6303C27.5308 59.3503 32.0679 54.3279 36.4568 49.473C40.6954 44.7819 44.701 40.3487 47.268 34.8565C48.6122 31.9871 49.2939 29.0714 49.2978 26.1886C49.2978 25.3393 49.9872 24.6518 50.8384 24.6518C51.6896 24.6518 52.379 25.3431 52.3771 26.1963C52.3733 29.5298 51.5914 32.8845 50.0546 36.164C47.2912 42.0742 42.9428 46.8848 38.7388 51.5375C34.3211 56.427 30.1479 61.0469 27.5963 66.8685C27.3421 67.4443 26.7759 67.7891 26.1847 67.7891L26.1905 67.7871Z" fill="white"/>
<path d="M50.8403 27.7311C49.9891 27.7311 49.2997 27.0417 49.2997 26.1905C49.2997 13.6633 38.7176 3.08123 26.1905 3.08123C13.6633 3.08123 3.08123 13.6633 3.08123 26.1905C3.08123 27.0417 2.39181 27.7311 1.54062 27.7311C0.689426 27.7311 0 27.0417 0 26.1905C0 11.9937 11.9937 0 26.1905 0C40.3873 0 52.381 11.9937 52.381 26.1905C52.381 27.0417 51.6915 27.7311 50.8403 27.7311Z" fill="white"/>
<path d="M26.1905 77C22.9359 77 19.6332 76.8343 16.3729 76.5127C13.7731 76.2566 10.3857 75.8021 7.22357 74.5831C6.01226 74.1171 3.85732 73.289 3.52994 71.3286C3.39321 70.5101 3.58771 69.7071 4.09612 69.0119C5.54045 67.0264 9.36117 66.2272 12.9084 65.7073L13.3437 65.6418C19.4349 64.6731 26.1057 64.442 33.1136 64.9658C36.9748 65.2489 40.0811 65.7169 42.8946 66.4371C44.7395 66.907 47.322 67.5656 48.5063 69.4875C48.6661 69.761 48.7682 70.0171 48.8298 70.2829C48.8645 70.4369 48.8818 70.5698 48.8934 70.7027C48.8972 70.7412 48.8972 70.8298 48.8972 70.8683C48.8972 70.9068 48.8972 70.9973 48.8934 71.0359C48.8818 71.1687 48.8645 71.3035 48.8356 71.4403C48.3099 73.3988 46.282 74.1633 45.0688 74.6197C41.847 75.833 38.3613 76.2797 36.0138 76.5127C32.7516 76.8363 29.447 77.0019 26.1924 77.0019L26.1905 77ZM25.9074 67.7717C21.6996 67.7717 17.6343 68.0779 13.827 68.6845L13.3533 68.7577C7.22935 69.657 6.60925 70.747 6.55918 70.8664C6.67665 70.9839 7.25631 71.2997 8.27311 71.6868C10.5282 72.5553 13.101 73.0926 16.6752 73.4469C22.9956 74.0728 29.3853 74.0728 35.7038 73.4469C37.878 73.2332 41.0959 72.821 43.9268 71.7561C45.0072 71.3498 45.4983 71.0705 45.7043 70.8837C45.013 70.1558 43.3164 69.7244 42.2668 69.4567C39.4937 68.7461 36.5569 68.307 32.8806 68.0355C30.5158 67.8622 28.1682 67.7698 25.9055 67.7698L25.9074 67.7717Z" fill="white"/>
</g>
<defs>
<clipPath id="clip0_34_8739">
<rect width="52.381" height="77" fill="white"/>
</clipPath>
</defs>
</svg>
