<svg width="451" height="521" viewBox="0 0 451 521" fill="none" xmlns="http://www.w3.org/2000/svg">
<path d="M258.914 519.414L258.654 442.478L240.829 415.473L240.697 376.422L272.647 356.009L272.269 244.412L256.179 221.039L255.954 154.17" stroke="#EEEEEE" stroke-width="1.5" stroke-miterlimit="10"/>
<path d="M258.718 154.297C258.713 152.773 257.473 151.538 255.944 151.543C254.42 151.548 253.185 152.788 253.19 154.317C253.195 155.841 254.435 157.076 255.964 157.071C257.488 157.066 258.723 155.826 258.718 154.297Z" fill="#F0F0F0"/>
<path d="M278.798 519.345L278.533 441.953L260.379 414.498L260.59 379.553L292.535 358.361L292.153 244.349L276.063 220.976L275.715 118.177" stroke="#EEEEEE" stroke-width="1.5" stroke-miterlimit="10"/>
<path d="M278.479 118.309C278.474 116.785 277.234 115.55 275.705 115.555C274.181 115.56 272.946 116.8 272.951 118.329C272.956 119.853 274.196 121.088 275.725 121.083C277.249 121.078 278.484 119.838 278.479 118.309Z" fill="#F0F0F0"/>
<path d="M298.975 519.277L298.715 441.885L280.562 414.429L280.773 379.485L312.718 358.293L312.34 246.907" stroke="#EEEEEE" stroke-width="1.5" stroke-miterlimit="10"/>
<path d="M315.104 247.034C315.1 245.51 313.86 244.275 312.33 244.28C310.801 244.285 309.571 245.525 309.576 247.054C309.581 248.578 310.821 249.813 312.35 249.808C313.879 249.804 315.109 248.564 315.104 247.034Z" fill="#F0F0F0"/>
<path d="M361.385 353.661L361.728 456.063L377.818 479.436L377.95 519.012" stroke="#EEEEEE" stroke-width="1.5" stroke-miterlimit="10"/>
<path d="M358.204 353.828C358.199 352.073 359.616 350.642 361.37 350.637C363.125 350.632 364.556 352.049 364.561 353.803C364.566 355.558 363.149 356.989 361.395 356.994C359.64 356.999 358.209 355.582 358.204 353.828Z" fill="#F0F0F0"/>
<path d="M360.532 519.071L360.395 479.495L344.31 456.122L343.952 350.701L328.514 335.366L328.337 282.479L342.869 267.844L342.692 214.585" stroke="#EEEEEE" stroke-width="1.5" stroke-miterlimit="10"/>
<path d="M345.868 214.732C345.863 212.977 344.432 211.556 342.678 211.566C340.923 211.571 339.502 213.002 339.512 214.756C339.516 216.511 340.948 217.932 342.702 217.922C344.457 217.917 345.878 216.486 345.868 214.732Z" fill="#F0F0F0"/>
<path d="M309.488 519.242L309.071 396.658" stroke="#EEEEEE" stroke-width="1.5" stroke-miterlimit="10"/>
<path d="M311.835 396.785C311.831 395.261 310.591 394.026 309.061 394.031C307.532 394.036 306.302 395.276 306.307 396.805C306.312 398.334 307.552 399.564 309.081 399.559C310.61 399.554 311.84 398.314 311.835 396.785Z" fill="#F0F0F0"/>
<path d="M431.651 313.85L431.999 416.252L416.065 439.733L416.335 518.88" stroke="#EEEEEE" stroke-width="1.5" stroke-miterlimit="10"/>
<path d="M428.475 314.017C428.47 312.262 429.886 310.831 431.641 310.826C433.396 310.821 434.827 312.238 434.832 313.992C434.836 315.747 433.42 317.178 431.666 317.183C429.911 317.188 428.48 315.771 428.475 314.017Z" fill="#F0F0F0"/>
<path d="M447.579 290.149L448.006 416.198L432.077 439.679L432.342 518.826" stroke="#EEEEEE" stroke-width="1.5" stroke-miterlimit="10"/>
<path d="M444.403 290.32C444.398 288.566 445.815 287.135 447.569 287.13C449.324 287.125 450.755 288.541 450.76 290.296C450.765 292.05 449.348 293.481 447.594 293.486C445.839 293.491 444.408 292.075 444.403 290.32Z" fill="#F0F0F0"/>
<path d="M224.215 519.527C224.205 516.135 223.715 371.256 223.715 371.256L260.213 346.324" stroke="#EEEEEE" stroke-width="1.5" stroke-miterlimit="10"/>
<path d="M261.659 348.692C262.918 347.829 263.242 346.109 262.384 344.849C261.521 343.59 259.801 343.266 258.542 344.124C257.282 344.986 256.959 346.707 257.816 347.966C258.674 349.226 260.399 349.549 261.659 348.692Z" fill="#F0F0F0"/>
<path d="M211.114 519.571L210.57 358.459L261.683 325.446L261.492 268.932" stroke="#EEEEEE" stroke-width="1.5" stroke-miterlimit="10"/>
<path d="M264.256 269.06C264.251 267.535 263.011 266.3 261.482 266.305C259.958 266.31 258.723 267.55 258.728 269.079C258.733 270.604 259.973 271.839 261.502 271.834C263.026 271.829 264.261 270.589 264.256 269.06Z" fill="#F0F0F0"/>
<path d="M197.441 519.62L196.789 326.931L223.509 309.219L223.298 247.206" stroke="#EEEEEE" stroke-width="1.5" stroke-miterlimit="10"/>
<path d="M226.062 247.333C226.058 245.809 224.818 244.574 223.289 244.579C221.759 244.584 220.529 245.824 220.534 247.353C220.539 248.877 221.779 250.112 223.308 250.107C224.837 250.103 226.067 248.863 226.062 247.333Z" fill="#F0F0F0"/>
<path d="M68.7689 520.051L68.5582 457.45L101.072 424.711L100.895 372.466L100.694 312.257" stroke="#EEEEEE" stroke-width="1.5" stroke-miterlimit="10"/>
<path d="M103.458 312.39C103.453 310.865 102.213 309.63 100.684 309.635C99.1601 309.64 97.9251 310.88 97.93 312.409C97.9349 313.933 99.1749 315.169 100.704 315.164C102.228 315.159 103.463 313.919 103.458 312.39Z" fill="#F0F0F0"/>
<path d="M87.1624 519.992L86.9516 457.387L119.465 424.648L119.289 372.403L119.156 332.969L140.834 311.14L140.53 220.143" stroke="#EEEEEE" stroke-width="1.5" stroke-miterlimit="10"/>
<path d="M143.294 220.27C143.289 218.746 142.049 217.511 140.52 217.516C138.996 217.52 137.761 218.76 137.766 220.29C137.77 221.814 139.01 223.049 140.539 223.044C142.064 223.039 143.299 221.799 143.294 220.27Z" fill="#F0F0F0"/>
<path d="M103.473 519.938L103.282 462.67L134.982 430.754L134.815 381.2L134.697 346.971L162.849 318.629L165.167 242.315" stroke="#EEEEEE" stroke-width="1.5" stroke-miterlimit="10"/>
<path d="M167.926 242.535C167.971 241.011 166.775 239.737 165.246 239.688C163.717 239.639 162.447 240.84 162.398 242.369C162.354 243.893 163.55 245.167 165.079 245.216C166.608 245.265 167.877 244.064 167.926 242.535Z" fill="#F0F0F0"/>
<path d="M119.377 519.884L119.215 471.864" stroke="#EEEEEE" stroke-width="1.5" stroke-miterlimit="10"/>
<path d="M121.979 471.992C121.974 470.467 120.735 469.232 119.205 469.237C117.676 469.242 116.446 470.482 116.451 472.011C116.456 473.535 117.696 474.771 119.225 474.766C120.754 474.761 121.984 473.521 121.979 471.992Z" fill="#F0F0F0"/>
<path d="M137.207 519.821L136.986 454.069" stroke="#EEEEEE" stroke-width="1.5" stroke-miterlimit="10"/>
<path d="M139.75 454.196C139.746 452.672 138.506 451.437 136.977 451.442C135.452 451.447 134.217 452.687 134.222 454.216C134.227 455.74 135.467 456.975 136.996 456.97C138.52 456.965 139.755 455.725 139.75 454.196Z" fill="#F0F0F0"/>
<path d="M239.178 519.478L238.957 453.726" stroke="#EEEEEE" stroke-width="1.5" stroke-miterlimit="10"/>
<path d="M241.721 453.853C241.716 452.329 240.476 451.094 238.947 451.099C237.418 451.103 236.188 452.343 236.193 453.873C236.198 455.397 237.438 456.632 238.967 456.627C240.496 456.622 241.726 455.382 241.721 453.853Z" fill="#F0F0F0"/>
<path d="M183.252 426.809L182.772 285.596" stroke="#EEEEEE" stroke-width="1.5" stroke-miterlimit="10"/>
<path d="M185.536 285.723C185.531 284.199 184.291 282.964 182.762 282.969C181.238 282.974 180.003 284.214 180.008 285.743C180.012 287.267 181.252 288.502 182.781 288.497C184.306 288.492 185.541 287.252 185.536 285.723Z" fill="#F0F0F0"/>
<path d="M241.667 280.126L241.79 316.438L207.223 338.14" stroke="#EEEEEE" stroke-width="1.5" stroke-miterlimit="10"/>
<path d="M238.903 280.273C238.898 278.749 240.133 277.504 241.658 277.499C243.182 277.494 244.427 278.729 244.432 280.254C244.436 281.778 243.201 283.023 241.677 283.028C240.153 283.033 238.908 281.797 238.903 280.273Z" fill="#F0F0F0"/>
<path d="M185.124 519.659L184.894 451.5L165.897 432.636L165.618 349.495" stroke="#EEEEEE" stroke-width="1.5" stroke-miterlimit="10"/>
<path d="M168.382 349.623C168.377 348.099 167.137 346.863 165.608 346.868C164.084 346.873 162.849 348.113 162.854 349.642C162.859 351.167 164.099 352.402 165.628 352.397C167.152 352.392 168.387 351.152 168.382 349.623Z" fill="#F0F0F0"/>
<path d="M170.147 519.713L169.97 466.277L149.842 446.291L150.552 408.714" stroke="#EEEEEE" stroke-width="1.5" stroke-miterlimit="10"/>
<path d="M153.317 408.906C153.346 407.381 152.131 406.117 150.606 406.087C149.082 406.058 147.818 407.274 147.788 408.798C147.759 410.322 148.974 411.586 150.498 411.616C152.023 411.645 153.287 410.43 153.317 408.906Z" fill="#F0F0F0"/>
<path d="M153.106 519.767L152.988 485.249" stroke="#EEEEEE" stroke-width="1.5" stroke-miterlimit="10"/>
<path d="M155.752 485.376C155.747 483.852 154.507 482.617 152.978 482.622C151.454 482.627 150.219 483.867 150.224 485.396C150.229 486.92 151.469 488.155 152.998 488.15C154.522 488.145 155.757 486.905 155.752 485.376Z" fill="#F0F0F0"/>
<path d="M340.967 519.135L340.849 484.617" stroke="#EEEEEE" stroke-width="1.5" stroke-miterlimit="10"/>
<path d="M343.614 484.744C343.609 483.22 342.369 481.985 340.84 481.99C339.315 481.995 338.08 483.235 338.085 484.764C338.09 486.293 339.33 487.523 340.859 487.518C342.383 487.513 343.619 486.273 343.614 484.744Z" fill="#F0F0F0"/>
<path d="M448.354 518.772L448.236 484.254" stroke="#EEEEEE" stroke-width="1.5" stroke-miterlimit="10"/>
<path d="M451 484.381C450.995 482.857 449.755 481.622 448.226 481.627C446.702 481.632 445.467 482.872 445.472 484.401C445.477 485.925 446.717 487.16 448.246 487.155C449.775 487.151 451.005 485.911 451 484.381Z" fill="#F0F0F0"/>
<path d="M396.084 400.045L395.966 365.527" stroke="#EEEEEE" stroke-width="1.5" stroke-miterlimit="10"/>
<path d="M398.731 365.654C398.726 364.13 397.486 362.895 395.957 362.9C394.432 362.905 393.197 364.145 393.202 365.674C393.207 367.198 394.447 368.433 395.976 368.428C397.5 368.423 398.736 367.183 398.731 365.654Z" fill="#F0F0F0"/>
<path d="M325.524 519.188L325.156 409.361" stroke="#EEEEEE" stroke-width="1.5" stroke-miterlimit="10"/>
<path d="M327.921 409.494C327.916 407.969 326.676 406.734 325.147 406.739C323.617 406.744 322.387 407.984 322.392 409.513C322.397 411.038 323.637 412.273 325.166 412.268C326.695 412.263 327.925 411.023 327.921 409.494Z" fill="#F0F0F0"/>
<path d="M403.137 518.924L402.794 418.541L412.341 408.93L411.846 263.154" stroke="#EEEEEE" stroke-width="1.5" stroke-miterlimit="10"/>
<path d="M414.615 263.281C414.61 261.757 413.37 260.522 411.841 260.527C410.317 260.532 409.082 261.772 409.086 263.301C409.091 264.825 410.331 266.06 411.86 266.055C413.385 266.05 414.62 264.811 414.615 263.281Z" fill="#F0F0F0"/>
<path d="M392.202 518.963L391.972 450.584L380.023 432.573L379.666 327.392" stroke="#EEEEEE" stroke-width="1.5" stroke-miterlimit="10"/>
<path d="M382.43 327.524C382.425 326 381.185 324.765 379.656 324.77C378.132 324.775 376.896 326.014 376.901 327.544C376.906 329.068 378.146 330.303 379.675 330.298C381.2 330.293 382.435 329.053 382.43 327.524Z" fill="#F0F0F0"/>
<path d="M52.0417 520.11L51.9584 494.786L16.818 494.904L16.1564 299.628" stroke="#EEEEEE" stroke-width="1.5" stroke-miterlimit="10"/>
<path d="M18.9205 299.76C18.9156 298.236 17.6756 297.001 16.1465 297.005C14.6223 297.01 13.3872 298.25 13.3921 299.779C13.397 301.304 14.637 302.539 16.1661 302.534C17.6904 302.529 18.9254 301.289 18.9205 299.76Z" fill="#F0F0F0"/>
<path d="M30.3743 520.184L30.34 510.729L3.39899 510.823L3.14906 435.626" stroke="#EEEEEE" stroke-width="1.5" stroke-miterlimit="10"/>
<path d="M5.91325 435.753C5.90835 434.229 4.66841 432.994 3.13929 432.999C1.61507 433.004 0.380009 434.244 0.38491 435.773C0.389811 437.297 1.62976 438.532 3.15888 438.527C4.688 438.523 5.91816 437.283 5.91325 435.753Z" fill="#F0F0F0"/>
<path d="M29.5264 269.79L29.9381 391.002L30.0165 414.096L52.3211 391.634L51.8114 240.354" stroke="#EEEEEE" stroke-width="1.5" stroke-miterlimit="10"/>
<path d="M26.7671 269.942C26.7622 268.418 27.9973 267.173 29.5215 267.168C31.0457 267.163 32.2906 268.398 32.2955 269.922C32.3004 271.446 31.0653 272.691 29.5411 272.696C28.0169 272.701 26.772 271.466 26.7671 269.942Z" fill="#F0F0F0"/>
<path d="M54.5755 240.482C54.5706 238.958 53.3307 237.722 51.8015 237.727C50.2773 237.732 49.0423 238.972 49.0472 240.501C49.0521 242.026 50.2921 243.261 51.8212 243.256C53.3454 243.251 54.5804 242.011 54.5755 240.482Z" fill="#F0F0F0"/>
<path d="M85.3981 278.313L85.8588 415.037L49.4 451.741L48.3512 476.486L30.2272 476.545L30.1194 445.134L68.5091 406.489L68.2151 320.78" stroke="#EEEEEE" stroke-width="1.5" stroke-miterlimit="10"/>
<path d="M82.6339 278.46C82.629 276.936 83.864 275.691 85.3882 275.686C86.9125 275.681 88.1573 276.916 88.1622 278.44C88.1671 279.964 86.9321 281.209 85.4078 281.214C83.8836 281.219 82.6388 279.984 82.6339 278.46Z" fill="#F0F0F0"/>
<path d="M70.9841 320.908C70.9792 319.383 69.7393 318.148 68.2101 318.153C66.6859 318.158 65.4509 319.398 65.4558 320.927C65.4607 322.451 66.7006 323.687 68.2297 323.682C69.754 323.677 70.989 322.437 70.9841 320.908Z" fill="#F0F0F0"/>
<g opacity="0.7">
<path d="M170.235 348.236L170.009 282.033L185.193 258.694L185.075 225.088L157.468 207.709L157.144 111.683L170.852 91.4758L170.651 32.5458" stroke="#EEEEEE" stroke-width="0.5" stroke-miterlimit="10"/>
<path d="M171.573 32.5899C171.573 32.0802 171.156 31.6685 170.647 31.6734C170.137 31.6734 169.725 32.09 169.73 32.5997C169.73 33.1094 170.147 33.5211 170.656 33.5162C171.166 33.5162 171.578 33.0996 171.573 32.5899Z" fill="#F0F0F0"/>
<path d="M153.125 348.295L152.9 281.699L168.363 257.969L167.975 227.896L140.363 209.845L140.035 111.742L153.738 91.5346L153.439 1.69385" stroke="#EEEEEE" stroke-width="0.5" stroke-miterlimit="10"/>
<path d="M154.36 1.73306C154.36 1.22336 153.944 0.811671 153.434 0.816572C152.924 0.816572 152.513 1.23316 152.518 1.74287C152.518 2.25257 152.934 2.66426 153.444 2.65936C153.954 2.65446 154.365 2.24277 154.36 1.73306Z" fill="#F0F0F0"/>
<path d="M135.756 348.353L135.531 281.758L150.993 258.027L150.611 227.955L122.999 209.904L122.67 112.673" stroke="#EEEEEE" stroke-width="0.5" stroke-miterlimit="10"/>
<path d="M123.592 112.717C123.592 112.207 123.175 111.795 122.666 111.8C122.156 111.8 121.744 112.217 121.749 112.727C121.749 113.236 122.166 113.648 122.675 113.643C123.185 113.643 123.597 113.227 123.592 112.717Z" fill="#F0F0F0"/>
<path d="M81.09 204.611L81.3939 294.324L67.6857 314.527L67.7984 348.584" stroke="#EEEEEE" stroke-width="0.5" stroke-miterlimit="10"/>
<path d="M80.0314 204.67C80.0314 204.087 80.5019 203.606 81.0851 203.606C81.6684 203.606 82.1487 204.077 82.1487 204.66C82.1487 205.243 81.6782 205.724 81.0949 205.724C80.5117 205.724 80.0314 205.253 80.0314 204.67Z" fill="#F0F0F0"/>
<path d="M96.3617 83.8203L96.5234 132.252L109.119 144.76L109.271 190.271L96.0774 203.557L96.3813 294.27L82.6731 314.477L83.0554 427.652L54.2667 456.637L54.4628 515.013" stroke="#EEEEEE" stroke-width="0.5" stroke-miterlimit="10"/>
<path d="M53.4041 514.964C53.4041 515.547 53.8844 516.022 54.4677 516.017C55.0509 516.017 55.5263 515.537 55.5214 514.954C55.5214 514.371 55.0411 513.895 54.4579 513.9C53.8746 513.905 53.3992 514.381 53.4041 514.964Z" fill="#F0F0F0"/>
<path d="M126.714 348.383L126.351 241.516" stroke="#EEEEEE" stroke-width="0.5" stroke-miterlimit="10"/>
<path d="M127.272 241.555C127.272 241.045 126.856 240.634 126.346 240.639C125.836 240.639 125.425 241.055 125.43 241.565C125.43 242.075 125.846 242.486 126.356 242.481C126.866 242.476 127.277 242.065 127.272 241.555Z" fill="#F0F0F0"/>
<path d="M20.3908 170.765L20.6947 260.473L34.5401 280.587L34.7704 348.696" stroke="#EEEEEE" stroke-width="0.5" stroke-miterlimit="10"/>
<path d="M19.3322 170.818C19.3322 170.235 19.8027 169.755 20.3859 169.755C20.9692 169.755 21.4495 170.225 21.4495 170.809C21.4495 171.392 20.979 171.872 20.3958 171.872C19.8125 171.872 19.3322 171.402 19.3322 170.818Z" fill="#F0F0F0"/>
<path d="M6.55034 150.465L6.91791 260.522L20.7633 280.631L20.9936 348.74" stroke="#EEEEEE" stroke-width="0.5" stroke-miterlimit="10"/>
<path d="M5.48688 150.518C5.48688 149.935 5.95739 149.455 6.54061 149.455C7.12383 149.455 7.60413 149.925 7.60413 150.509C7.60413 151.092 7.13365 151.572 6.55042 151.572C5.9672 151.572 5.48688 151.102 5.48688 150.518Z" fill="#F0F0F0"/>
<path d="M200.087 348.138C200.077 345.222 199.656 220.549 199.656 220.549L166.956 198.539" stroke="#EEEEEE" stroke-width="0.5" stroke-miterlimit="10"/>
<path d="M167.51 197.799C167.088 197.514 166.515 197.627 166.231 198.049C165.946 198.47 166.059 199.044 166.481 199.328C166.902 199.612 167.476 199.499 167.76 199.078C168.044 198.656 167.931 198.083 167.51 197.799Z" fill="#F0F0F0"/>
<path d="M211.364 348.099L210.894 209.458L166.721 181.346L166.554 131.331" stroke="#EEEEEE" stroke-width="0.5" stroke-miterlimit="10"/>
<path d="M167.476 131.375C167.476 130.865 167.059 130.454 166.549 130.459C166.04 130.459 165.628 130.875 165.633 131.385C165.633 131.895 166.049 132.306 166.559 132.301C167.069 132.301 167.48 131.885 167.476 131.375Z" fill="#F0F0F0"/>
<path d="M223.132 348.059L222.573 182.248L199.479 167.162L199.293 112.413" stroke="#EEEEEE" stroke-width="0.5" stroke-miterlimit="10"/>
<path d="M200.214 112.457C200.214 111.947 199.798 111.536 199.288 111.541C198.778 111.541 198.367 111.957 198.372 112.467C198.372 112.977 198.788 113.388 199.298 113.383C199.808 113.378 200.219 112.967 200.214 112.457Z" fill="#F0F0F0"/>
<path d="M333.856 347.687L333.674 293.81L305.503 265.83L305.351 220.873L305.17 167.677" stroke="#EEEEEE" stroke-width="0.5" stroke-miterlimit="10"/>
<path d="M306.091 167.721C306.091 167.211 305.675 166.8 305.165 166.805C304.655 166.805 304.244 167.221 304.249 167.731C304.249 168.241 304.665 168.652 305.175 168.647C305.685 168.642 306.096 168.231 306.091 167.721Z" fill="#F0F0F0"/>
<path d="M318.025 347.741L317.844 293.864L289.673 265.884L289.526 220.927L289.408 186.992L270.627 168.339L270.358 88.6479" stroke="#EEEEEE" stroke-width="0.5" stroke-miterlimit="10"/>
<path d="M271.279 88.6871C271.279 88.1774 270.863 87.7657 270.353 87.7706C269.843 87.7706 269.432 88.1872 269.437 88.6969C269.437 89.2066 269.853 89.6183 270.363 89.6134C270.873 89.6134 271.284 89.1968 271.279 88.6871Z" fill="#F0F0F0"/>
<path d="M303.989 347.785L303.822 298.505L276.362 271.226L276.215 228.582L276.117 199.132L251.729 174.906L249.239 107.87" stroke="#EEEEEE" stroke-width="0.5" stroke-miterlimit="10"/>
<path d="M250.161 107.879C250.141 107.37 249.715 106.973 249.205 106.992C248.695 107.012 248.298 107.438 248.318 107.948C248.338 108.458 248.764 108.855 249.274 108.835C249.783 108.816 250.18 108.389 250.161 107.879Z" fill="#F0F0F0"/>
<path d="M290.305 347.834L290.158 305.126" stroke="#EEEEEE" stroke-width="0.5" stroke-miterlimit="10"/>
<path d="M291.079 305.17C291.079 304.661 290.663 304.249 290.153 304.254C289.643 304.254 289.232 304.67 289.237 305.18C289.237 305.69 289.653 306.102 290.163 306.097C290.673 306.097 291.084 305.68 291.079 305.17Z" fill="#F0F0F0"/>
<path d="M274.96 347.883L274.764 289.918" stroke="#EEEEEE" stroke-width="0.5" stroke-miterlimit="10"/>
<path d="M275.685 289.962C275.685 289.453 275.269 289.041 274.759 289.046C274.249 289.046 273.838 289.463 273.843 289.972C273.843 290.482 274.259 290.894 274.769 290.889C275.279 290.889 275.69 290.472 275.685 289.962Z" fill="#F0F0F0"/>
<path d="M187.217 348.182L187.021 290.212" stroke="#EEEEEE" stroke-width="0.5" stroke-miterlimit="10"/>
<path d="M187.942 290.256C187.942 289.747 187.526 289.335 187.016 289.34C186.506 289.345 186.095 289.757 186.099 290.266C186.099 290.776 186.516 291.188 187.026 291.183C187.535 291.183 187.947 290.766 187.942 290.256Z" fill="#F0F0F0"/>
<path d="M234.801 268.114L234.389 145.216" stroke="#EEEEEE" stroke-width="0.5" stroke-miterlimit="10"/>
<path d="M235.311 145.255C235.311 144.745 234.894 144.333 234.384 144.338C233.875 144.343 233.463 144.755 233.468 145.265C233.468 145.774 233.884 146.186 234.394 146.181C234.904 146.181 235.316 145.764 235.311 145.255Z" fill="#F0F0F0"/>
<path d="M183.678 140.849L183.786 173.48L213.658 191.952" stroke="#EEEEEE" stroke-width="0.5" stroke-miterlimit="10"/>
<path d="M182.757 140.898C182.757 140.388 183.169 139.976 183.673 139.971C184.183 139.971 184.595 140.383 184.6 140.888C184.6 141.398 184.188 141.809 183.683 141.814C183.174 141.814 182.762 141.403 182.757 140.898Z" fill="#F0F0F0"/>
<path d="M233.733 348.025L233.532 289.369L249.764 273.029L249.519 200.097" stroke="#EEEEEE" stroke-width="0.5" stroke-miterlimit="10"/>
<path d="M250.44 200.141C250.44 199.632 250.024 199.22 249.514 199.225C249.004 199.225 248.593 199.641 248.597 200.151C248.597 200.661 249.014 201.073 249.524 201.068C250.033 201.063 250.445 200.651 250.44 200.141Z" fill="#F0F0F0"/>
<path d="M246.617 347.981L246.461 301.999L263.663 284.684L262.796 250.97" stroke="#EEEEEE" stroke-width="0.5" stroke-miterlimit="10"/>
<path d="M263.717 250.99C263.702 250.48 263.281 250.078 262.771 250.093C262.261 250.107 261.86 250.529 261.874 251.039C261.889 251.548 262.31 251.95 262.82 251.935C263.33 251.921 263.732 251.499 263.717 250.99Z" fill="#F0F0F0"/>
<path d="M261.281 347.932L261.178 316.84" stroke="#EEEEEE" stroke-width="0.5" stroke-miterlimit="10"/>
<path d="M262.1 316.884C262.1 316.374 261.683 315.962 261.173 315.967C260.664 315.967 260.252 316.384 260.257 316.894C260.257 317.403 260.674 317.815 261.183 317.81C261.693 317.81 262.105 317.394 262.1 316.884Z" fill="#F0F0F0"/>
<path d="M99.8855 425.378L99.5179 317.389" stroke="#EEEEEE" stroke-width="0.5" stroke-miterlimit="10"/>
<path d="M100.439 317.428C100.439 316.918 100.023 316.506 99.5131 316.511C99.0034 316.511 98.5917 316.928 98.5966 317.438C98.5966 317.947 99.0132 318.359 99.5229 318.354C100.033 318.354 100.444 317.938 100.439 317.428Z" fill="#F0F0F0"/>
<path d="M7.21686 348.79L7.11393 317.698" stroke="#EEEEEE" stroke-width="0.5" stroke-miterlimit="10"/>
<path d="M8.03536 317.742C8.03536 317.232 7.61876 316.82 7.10906 316.825C6.59935 316.83 6.18766 317.242 6.19257 317.751C6.19257 318.261 6.60916 318.673 7.11887 318.668C7.62857 318.668 8.04026 318.251 8.03536 317.742Z" fill="#F0F0F0"/>
<path d="M51.5026 246.319L51.3996 215.232" stroke="#EEEEEE" stroke-width="0.5" stroke-miterlimit="10"/>
<path d="M52.3211 215.276C52.3211 214.766 51.9045 214.354 51.3948 214.359C50.8851 214.359 50.4734 214.776 50.4783 215.286C50.4783 215.795 50.8949 216.207 51.4046 216.202C51.9143 216.202 52.326 215.785 52.3211 215.276Z" fill="#F0F0F0"/>
<path d="M112.912 348.432L112.589 252.543" stroke="#EEEEEE" stroke-width="0.5" stroke-miterlimit="10"/>
<path d="M113.51 252.582C113.51 252.073 113.094 251.661 112.584 251.666C112.074 251.666 111.663 252.082 111.668 252.592C111.668 253.102 112.084 253.514 112.594 253.509C113.104 253.509 113.515 253.092 113.51 252.582Z" fill="#F0F0F0"/>
<path d="M46.1261 348.657L45.837 262.272L37.5689 254.062L37.1377 127.234" stroke="#EEEEEE" stroke-width="0.5" stroke-miterlimit="10"/>
<path d="M38.059 127.273C38.059 126.763 37.6424 126.351 37.1327 126.356C36.623 126.356 36.2113 126.773 36.2162 127.283C36.2162 127.792 36.6328 128.204 37.1425 128.199C37.6523 128.194 38.0639 127.783 38.059 127.273Z" fill="#F0F0F0"/>
<path d="M57.57 348.618L57.3691 289.776L67.5485 274.211L67.2398 182.316" stroke="#EEEEEE" stroke-width="0.5" stroke-miterlimit="10"/>
<path d="M68.1612 182.36C68.1612 181.851 67.7446 181.439 67.2348 181.444C66.7251 181.444 66.3135 181.861 66.3184 182.37C66.3184 182.88 66.735 183.292 67.2447 183.287C67.7544 183.282 68.1661 182.87 68.1612 182.36Z" fill="#F0F0F0"/>
<path d="M348.245 347.638L348.172 325.848L378.411 325.745L377.842 156.321" stroke="#EEEEEE" stroke-width="0.5" stroke-miterlimit="10"/>
<path d="M378.764 156.365C378.764 155.856 378.347 155.444 377.838 155.449C377.328 155.454 376.916 155.865 376.921 156.375C376.921 156.885 377.338 157.297 377.847 157.292C378.357 157.292 378.769 156.875 378.764 156.365Z" fill="#F0F0F0"/>
<path d="M366.894 347.574L366.869 339.438L390.051 339.36L389.825 273.27" stroke="#EEEEEE" stroke-width="0.5" stroke-miterlimit="10"/>
<path d="M390.747 273.314C390.747 272.804 390.33 272.392 389.82 272.397C389.311 272.397 388.899 272.814 388.904 273.324C388.909 273.833 389.321 274.245 389.83 274.24C390.34 274.24 390.752 273.823 390.747 273.314Z" fill="#F0F0F0"/>
<path d="M366.163 130.723L366.521 236.409L366.585 256.283L347.26 237.085L346.819 105.522" stroke="#EEEEEE" stroke-width="0.5" stroke-miterlimit="10"/>
<path d="M365.242 130.772C365.242 130.263 365.654 129.851 366.158 129.846C366.663 129.841 367.08 130.258 367.085 130.762C367.09 131.267 366.673 131.684 366.168 131.689C365.658 131.689 365.247 131.277 365.242 130.772Z" fill="#F0F0F0"/>
<path d="M347.74 105.566C347.74 105.057 347.324 104.645 346.814 104.65C346.304 104.65 345.893 105.066 345.898 105.576C345.898 106.086 346.314 106.497 346.824 106.493C347.334 106.488 347.745 106.076 347.74 105.566Z" fill="#F0F0F0"/>
<path d="M318.138 138.379L318.54 257.415L350.122 288.786L351.171 310.076L366.766 310.022L366.678 282.993L333.419 249.96L333.165 174.823" stroke="#EEEEEE" stroke-width="0.5" stroke-miterlimit="10"/>
<path d="M317.217 138.428C317.217 137.918 317.628 137.506 318.133 137.501C318.643 137.501 319.055 137.913 319.059 138.418C319.064 138.923 318.648 139.339 318.143 139.344C317.633 139.344 317.222 138.932 317.217 138.428Z" fill="#F0F0F0"/>
<path d="M334.086 174.867C334.086 174.357 333.669 173.945 333.16 173.95C332.65 173.95 332.238 174.367 332.243 174.877C332.243 175.386 332.66 175.798 333.17 175.793C333.679 175.793 334.091 175.376 334.086 174.867Z" fill="#F0F0F0"/>
</g>
<path d="M39.0685 516.072L39.0195 501.614L12.2501 501.707L11.9316 406.46" stroke="#EEEEEE" stroke-miterlimit="10"/>
<path d="M13.7744 406.548C13.7744 405.529 12.9412 404.71 11.9267 404.71C10.9121 404.71 10.0888 405.544 10.0888 406.558C10.0888 407.573 10.922 408.396 11.9365 408.396C12.9559 408.396 13.7744 407.563 13.7744 406.548Z" fill="#F0F0F0"/>
<path d="M277.567 515.268L277.2 406.372L287.33 396.173L287.252 373.275" stroke="#EEEEEE" stroke-miterlimit="10"/>
<path d="M289.095 373.363C289.095 372.344 288.261 371.526 287.247 371.526C286.228 371.526 285.409 372.359 285.409 373.373C285.409 374.393 286.242 375.211 287.257 375.211C288.271 375.211 289.095 374.378 289.095 373.363Z" fill="#F0F0F0"/>
<path d="M322.152 515.116L322.039 481.838L307.346 461.293L306.993 357.082" stroke="#EEEEEE" stroke-miterlimit="10"/>
<path d="M308.836 357.166C308.836 356.146 308.003 355.328 306.988 355.328C305.969 355.328 305.15 356.161 305.15 357.175C305.15 358.195 305.983 359.013 306.998 359.013C308.017 359.013 308.836 358.18 308.836 357.166Z" fill="#F0F0F0"/>
<path d="M334.155 515.077L333.949 467.772L324.539 455.877" stroke="#EEEEEE" stroke-miterlimit="10"/>
<path d="M326.039 454.809C325.406 454.01 324.25 453.878 323.451 454.505C322.652 455.137 322.52 456.294 323.147 457.093C323.779 457.892 324.936 458.024 325.735 457.397C326.534 456.764 326.666 455.608 326.039 454.809Z" fill="#F0F0F0"/>
<path d="M368.957 514.959L368.78 462.836" stroke="#EEEEEE" stroke-miterlimit="10"/>
<path d="M370.628 462.92C370.628 461.9 369.795 461.082 368.78 461.082C367.761 461.082 366.942 461.915 366.942 462.93C366.942 463.949 367.776 464.768 368.79 464.768C369.81 464.768 370.628 463.934 370.628 462.92Z" fill="#F0F0F0"/>
<path d="M252.587 515.351L252.41 463.229" stroke="#EEEEEE" stroke-miterlimit="10"/>
<path d="M254.253 463.312C254.253 462.293 253.42 461.474 252.405 461.474C251.386 461.474 250.568 462.307 250.568 463.322C250.568 464.341 251.401 465.16 252.415 465.16C253.435 465.16 254.253 464.327 254.253 463.312Z" fill="#F0F0F0"/>
<path d="M382.734 514.91L382.582 469.272" stroke="#EEEEEE" stroke-miterlimit="10"/>
<path d="M384.424 469.36C384.424 468.341 383.591 467.522 382.577 467.522C381.557 467.522 380.739 468.355 380.739 469.37C380.739 470.389 381.572 471.208 382.587 471.208C383.606 471.208 384.424 470.374 384.424 469.36Z" fill="#F0F0F0"/>
<path d="M306.346 515.17L306.258 489.106" stroke="#EEEEEE" stroke-width="0.5" stroke-miterlimit="10"/>
<path d="M307.179 489.15C307.179 488.641 306.763 488.229 306.253 488.234C305.743 488.234 305.332 488.65 305.337 489.16C305.341 489.67 305.753 490.081 306.263 490.077C306.772 490.077 307.184 489.66 307.179 489.15Z" fill="#F0F0F0"/>
<path d="M235.306 513.489L235.095 450.658L218.98 425.971L218.936 412.145" stroke="#EEEEEE" stroke-miterlimit="10"/>
<path d="M220.779 412.233C220.779 411.214 219.946 410.396 218.931 410.396C217.912 410.396 217.094 411.229 217.094 412.243C217.094 413.258 217.927 414.081 218.941 414.081C219.961 414.081 220.779 413.248 220.779 412.233Z" fill="#F0F0F0"/>
<path d="M219.284 515.464L219.074 453.402L210.252 444.639" stroke="#EEEEEE" stroke-miterlimit="10"/>
<path d="M211.614 443.394C210.894 442.679 209.727 442.679 209.007 443.404C208.286 444.129 208.291 445.291 209.017 446.011C209.737 446.727 210.904 446.722 211.624 446.002C212.344 445.281 212.34 444.115 211.614 443.394Z" fill="#F0F0F0"/>
</svg>
