<svg width="1060" height="920" viewBox="0 0 1060 920" fill="none" xmlns="http://www.w3.org/2000/svg">
<path d="M1058.14 391.93L901.16 392.46L846.06 428.83L766.38 429.1L724.73 363.91L497.03 364.68L449.34 397.51L312.9 397.97" stroke="#F0F0F0" stroke-width="1.5" stroke-miterlimit="10"/>
<path d="M313.16 392.33C310.05 392.34 307.53 394.87 307.54 397.99C307.55 401.1 310.08 403.62 313.2 403.61C316.31 403.6 318.83 401.07 318.82 397.95C318.81 394.84 316.28 392.32 313.16 392.33Z" fill="#F0F0F0"/>
<path d="M1058 351.36L900.09 351.9L844.07 388.94L772.77 388.51L729.53 323.33L496.9 324.11L449.21 356.94L239.46 357.65" stroke="#F0F0F0" stroke-width="1.5" stroke-miterlimit="10"/>
<path d="M239.73 352.01C236.62 352.02 234.1 354.55 234.11 357.67C234.12 360.78 236.65 363.3 239.77 363.29C242.88 363.28 245.4 360.75 245.39 357.63C245.38 354.52 242.85 352 239.73 352.01Z" fill="#F0F0F0"/>
<path d="M1057.86 310.19L899.95 310.72L843.93 347.76L772.63 347.33L729.39 282.15L502.12 282.92" stroke="#F0F0F0" stroke-width="1.5" stroke-miterlimit="10"/>
<path d="M502.38 277.28C499.27 277.29 496.75 279.82 496.76 282.94C496.77 286.06 499.3 288.57 502.42 288.56C505.53 288.55 508.05 286.02 508.04 282.9C508.03 279.78 505.5 277.27 502.38 277.28Z" fill="#F0F0F0"/>
<path d="M719.94 182.85L928.88 182.15L976.57 149.32L1057.32 149.05" stroke="#F0F0F0" stroke-width="1.5" stroke-miterlimit="10"/>
<path d="M720.28 189.34C716.7 189.35 713.78 186.46 713.77 182.88C713.76 179.3 716.65 176.38 720.23 176.37C723.81 176.36 726.73 179.25 726.74 182.83C726.75 186.41 723.86 189.33 720.28 189.34Z" fill="#F0F0F0"/>
<path d="M1057.44 184.59L976.69 184.87L929 217.69L713.9 218.42L682.61 249.92L574.7 250.28L544.84 220.63L436.17 220.99" stroke="#F0F0F0" stroke-width="1.5" stroke-miterlimit="10"/>
<path d="M436.47 214.51C432.89 214.52 429.99 217.44 430.01 221.02C430.02 224.6 432.94 227.5 436.52 227.48C440.1 227.47 443 224.55 442.98 220.97C442.97 217.39 440.05 214.49 436.47 214.51Z" fill="#F0F0F0"/>
<path d="M1057.79 288.74L807.67 289.59" stroke="#F0F0F0" stroke-width="1.5" stroke-miterlimit="10"/>
<path d="M807.93 283.95C804.82 283.96 802.3 286.49 802.31 289.61C802.32 292.73 804.85 295.24 807.97 295.23C811.09 295.22 813.6 292.69 813.59 289.57C813.58 286.45 811.05 283.94 807.93 283.95Z" fill="#F0F0F0"/>
<path d="M638.71 39.48L847.65 38.77L895.56 71.28L1057.05 70.73" stroke="#F0F0F0" stroke-width="1.5" stroke-miterlimit="10"/>
<path d="M639.05 45.96C635.47 45.97 632.55 43.08 632.54 39.5C632.53 35.92 635.42 33 639 32.99C642.58 32.98 645.5 35.87 645.51 39.45C645.52 43.03 642.63 45.95 639.05 45.96Z" fill="#F0F0F0"/>
<path d="M590.35 6.98005L847.54 6.11005L895.45 38.61L1056.94 38.07" stroke="#F0F0F0" stroke-width="1.5" stroke-miterlimit="10"/>
<path d="M590.7 13.46C587.12 13.47 584.2 10.58 584.19 7.00002C584.18 3.42002 587.07 0.500016 590.65 0.490016C594.23 0.480016 597.15 3.37002 597.16 6.95002C597.17 10.53 594.28 13.45 590.7 13.46Z" fill="#F0F0F0"/>
<path d="M1058.37 462.73C1051.45 462.75 755.84 463.75 755.84 463.75L704.97 389.28" stroke="#F0F0F0" stroke-width="1.5" stroke-miterlimit="10"/>
<path d="M709.8 386.33C708.04 383.76 704.53 383.1 701.96 384.85C699.39 386.61 698.73 390.12 700.48 392.69C702.24 395.26 705.75 395.92 708.32 394.17C710.89 392.42 711.55 388.9 709.8 386.33Z" fill="#F0F0F0"/>
<path d="M1058.46 489.46L729.73 490.57L662.37 386.28L547.06 386.67" stroke="#F0F0F0" stroke-width="1.5" stroke-miterlimit="10"/>
<path d="M547.32 381.03C544.21 381.04 541.69 383.57 541.7 386.69C541.71 389.8 544.24 392.32 547.36 392.31C550.47 392.3 552.99 389.77 552.98 386.65C552.97 383.54 550.44 381.02 547.32 381.03Z" fill="#F0F0F0"/>
<path d="M1058.56 517.36L665.4 518.69L629.26 464.17L502.73 464.6" stroke="#F0F0F0" stroke-width="1.5" stroke-miterlimit="10"/>
<path d="M502.99 458.96C499.88 458.97 497.36 461.5 497.37 464.62C497.38 467.74 499.91 470.25 503.03 470.24C506.14 470.23 508.66 467.7 508.65 464.58C508.64 461.46 506.11 458.95 502.99 458.96Z" fill="#F0F0F0"/>
<path d="M1059.44 779.9L931.71 780.33L864.91 713.99L758.31 714.35L635.46 714.76" stroke="#F0F0F0" stroke-width="1.5" stroke-miterlimit="10"/>
<path d="M635.73 709.12C632.62 709.13 630.1 711.66 630.11 714.78C630.12 717.89 632.65 720.41 635.77 720.4C638.88 720.39 641.4 717.86 641.39 714.74C641.38 711.63 638.85 709.11 635.73 709.12Z" fill="#F0F0F0"/>
<path d="M1059.32 742.37L931.58 742.8L864.78 676.46L758.18 676.82L677.72 677.09L633.18 632.86L447.51 633.48" stroke="#F0F0F0" stroke-width="1.5" stroke-miterlimit="10"/>
<path d="M447.77 627.84C444.66 627.85 442.14 630.38 442.15 633.5C442.16 636.61 444.69 639.13 447.81 639.12C450.92 639.11 453.44 636.58 453.43 633.46C453.42 630.35 450.89 627.83 447.77 627.84Z" fill="#F0F0F0"/>
<path d="M1059.21 709.09L942.36 709.48L877.24 644.8L776.13 645.14L706.29 645.38L648.46 587.94L492.75 583.21" stroke="#F0F0F0" stroke-width="1.5" stroke-miterlimit="10"/>
<path d="M493.2 577.58C490.09 577.49 487.49 579.93 487.39 583.05C487.29 586.17 489.74 588.76 492.86 588.86C495.97 588.95 498.57 586.51 498.67 583.39C498.77 580.27 496.32 577.68 493.2 577.58Z" fill="#F0F0F0"/>
<path d="M1059.1 676.64L961.12 676.97" stroke="#F0F0F0" stroke-width="1.5" stroke-miterlimit="10"/>
<path d="M961.38 671.33C958.27 671.34 955.75 673.87 955.76 676.99C955.77 680.11 958.3 682.62 961.42 682.61C964.53 682.6 967.05 680.07 967.04 676.95C967.03 673.83 964.5 671.32 961.38 671.33Z" fill="#F0F0F0"/>
<path d="M1058.97 640.26L924.81 640.71" stroke="#F0F0F0" stroke-width="1.5" stroke-miterlimit="10"/>
<path d="M925.07 635.07C921.96 635.08 919.44 637.61 919.45 640.73C919.46 643.84 921.99 646.36 925.11 646.35C928.22 646.34 930.74 643.81 930.73 640.69C930.72 637.58 928.19 635.06 925.07 635.07Z" fill="#F0F0F0"/>
<path d="M1058.27 432.2L924.11 432.65" stroke="#F0F0F0" stroke-width="1.5" stroke-miterlimit="10"/>
<path d="M924.37 427.01C921.26 427.02 918.74 429.55 918.75 432.67C918.76 435.79 921.29 438.3 924.41 438.29C927.52 438.28 930.04 435.75 930.03 432.63C930.02 429.51 927.49 427 924.37 427.01Z" fill="#F0F0F0"/>
<path d="M869.19 546.31L581.06 547.29" stroke="#F0F0F0" stroke-width="1.5" stroke-miterlimit="10"/>
<path d="M581.32 541.65C578.21 541.66 575.69 544.19 575.7 547.31C575.71 550.42 578.24 552.94 581.36 552.93C584.47 552.92 586.99 550.39 586.98 547.27C586.97 544.16 584.44 541.64 581.32 541.65Z" fill="#F0F0F0"/>
<path d="M569.9 427.12L643.99 426.87L688.27 497.4" stroke="#F0F0F0" stroke-width="1.5" stroke-miterlimit="10"/>
<path d="M570.2 432.76C567.09 432.77 564.55 430.25 564.54 427.14C564.53 424.03 567.05 421.49 570.16 421.48C573.27 421.47 575.81 423.99 575.82 427.1C575.83 430.21 573.31 432.75 570.2 432.76Z" fill="#F0F0F0"/>
<path d="M1058.64 542.49L919.57 542.96L881.08 581.72L711.44 582.29" stroke="#F0F0F0" stroke-width="1.5" stroke-miterlimit="10"/>
<path d="M711.7 576.65C708.59 576.66 706.07 579.19 706.08 582.31C706.09 585.42 708.62 587.94 711.74 587.93C714.85 587.92 717.37 585.39 717.36 582.27C717.35 579.16 714.82 576.64 711.7 576.65Z" fill="#F0F0F0"/>
<path d="M1058.75 573.05L949.72 573.41L908.94 614.48L832.27 613.03" stroke="#F0F0F0" stroke-width="1.5" stroke-miterlimit="10"/>
<path d="M832.66 607.39C829.55 607.33 826.97 609.81 826.91 612.92C826.85 616.03 829.33 618.61 832.44 618.67C835.55 618.73 838.13 616.25 838.19 613.14C838.25 610.03 835.77 607.45 832.66 607.39Z" fill="#F0F0F0"/>
<path d="M1058.86 607.82L988.43 608.06" stroke="#F0F0F0" stroke-width="1.5" stroke-miterlimit="10"/>
<path d="M988.69 602.42C985.58 602.43 983.06 604.96 983.07 608.08C983.08 611.19 985.61 613.71 988.73 613.7C991.84 613.69 994.36 611.16 994.35 608.04C994.34 604.93 991.81 602.41 988.69 602.42Z" fill="#F0F0F0"/>
<path d="M1057.57 224.51L987.14 224.75" stroke="#F0F0F0" stroke-width="1.5" stroke-miterlimit="10"/>
<path d="M987.4 219.11C984.29 219.12 981.77 221.65 981.78 224.77C981.79 227.88 984.32 230.4 987.44 230.39C990.56 230.38 993.07 227.85 993.06 224.73C993.05 221.62 990.52 219.1 987.4 219.11Z" fill="#F0F0F0"/>
<path d="M1056.83 5.40002L986.4 5.64002" stroke="#F0F0F0" stroke-width="1.5" stroke-miterlimit="10"/>
<path d="M986.66 2.97768e-05C983.55 0.0100298 981.03 2.54003 981.04 5.66003C981.05 8.77003 983.58 11.29 986.7 11.28C989.81 11.27 992.33 8.74003 992.32 5.62003C992.31 2.50003 989.78 -0.00997022 986.66 2.97768e-05Z" fill="#F0F0F0"/>
<path d="M814.58 112.05L744.15 112.29" stroke="#F0F0F0" stroke-width="1.5" stroke-miterlimit="10"/>
<path d="M744.41 106.65C741.3 106.66 738.78 109.19 738.79 112.31C738.8 115.42 741.33 117.94 744.45 117.93C747.56 117.92 750.08 115.39 750.07 112.27C750.06 109.16 747.53 106.64 744.41 106.65Z" fill="#F0F0F0"/>
<path d="M1057.68 256.02L833.59 256.77" stroke="#F0F0F0" stroke-width="1.5" stroke-miterlimit="10"/>
<path d="M833.86 251.13C830.75 251.14 828.23 253.67 828.24 256.79C828.25 259.91 830.78 262.42 833.9 262.41C837.01 262.4 839.53 259.87 839.52 256.75C839.51 253.63 836.98 251.12 833.86 251.13Z" fill="#F0F0F0"/>
<path d="M1057.14 97.66L852.32 98.36L832.71 78.88L535.27 79.89" stroke="#F0F0F0" stroke-width="1.5" stroke-miterlimit="10"/>
<path d="M535.53 74.24C532.42 74.25 529.9 76.78 529.91 79.9C529.92 83.01 532.45 85.53 535.57 85.52C538.68 85.51 541.2 82.98 541.19 79.86C541.18 76.75 538.65 74.23 535.53 74.24Z" fill="#F0F0F0"/>
<path d="M1057.22 119.97L917.7 120.44L880.95 144.82L666.34 145.55" stroke="#F0F0F0" stroke-width="1.5" stroke-miterlimit="10"/>
<path d="M666.61 139.91C663.5 139.92 660.98 142.45 660.99 145.57C661 148.68 663.53 151.2 666.65 151.19C669.76 151.18 672.28 148.65 672.27 145.53C672.26 142.42 669.73 139.9 666.61 139.91Z" fill="#F0F0F0"/>
<path d="M1059.56 814.03L1007.89 814.2L1008.13 885.9L609.69 887.25" stroke="#F0F0F0" stroke-width="1.5" stroke-miterlimit="10"/>
<path d="M609.96 881.61C606.85 881.62 604.33 884.15 604.34 887.27C604.35 890.38 606.88 892.9 610 892.89C613.11 892.88 615.63 890.35 615.62 887.23C615.61 884.12 613.08 881.6 609.96 881.61Z" fill="#F0F0F0"/>
<path d="M1059.71 858.24L1040.42 858.31L1040.61 913.28L887.18 913.79" stroke="#F0F0F0" stroke-width="1.5" stroke-miterlimit="10"/>
<path d="M887.44 908.15C884.33 908.16 881.81 910.69 881.82 913.81C881.83 916.92 884.36 919.44 887.48 919.43C890.59 919.42 893.11 916.89 893.1 913.77C893.09 910.65 890.56 908.14 887.44 908.15Z" fill="#F0F0F0"/>
<path d="M548.81 859.97L796.13 859.13L843.25 858.97L797.42 813.46L488.75 814.5" stroke="#F0F0F0" stroke-width="1.5" stroke-miterlimit="10"/>
<path d="M549.12 865.6C546.01 865.61 543.47 863.09 543.46 859.98C543.45 856.87 545.97 854.33 549.08 854.32C552.19 854.31 554.73 856.83 554.74 859.94C554.75 863.05 552.23 865.59 549.12 865.6Z" fill="#F0F0F0"/>
<path d="M489.01 808.86C485.9 808.87 483.38 811.4 483.39 814.52C483.4 817.63 485.93 820.15 489.05 820.14C492.16 820.13 494.68 817.6 494.67 814.48C494.66 811.37 492.13 808.85 489.01 808.86Z" fill="#F0F0F0"/>
<path d="M566.2 745.97L845.17 745.03L920.06 819.42L970.55 821.56L970.67 858.54L906.58 858.76L827.73 780.43L652.85 781.03" stroke="#F0F0F0" stroke-width="1.5" stroke-miterlimit="10"/>
<path d="M566.5 751.61C563.39 751.62 560.85 749.1 560.84 745.99C560.83 742.88 563.35 740.34 566.46 740.33C569.57 740.32 572.11 742.84 572.12 745.95C572.13 749.06 569.61 751.6 566.5 751.61Z" fill="#F0F0F0"/>
<path d="M653.11 775.38C650 775.39 647.48 777.92 647.49 781.04C647.5 784.15 650.03 786.67 653.15 786.66C656.26 786.65 658.78 784.12 658.77 781C658.76 777.89 656.23 775.37 653.11 775.38Z" fill="#F0F0F0"/>
<g opacity="0.7">
<path d="M708.87 572.87L573.79 573.33L526.17 542.35L457.6 542.59L422.14 598.92L226.21 599.58L184.98 571.61L64.7401 572.02" stroke="#F0F0F0" stroke-width="0.5" stroke-miterlimit="10"/>
<path d="M64.8301 570.14C63.7901 570.14 62.95 570.99 62.96 572.03C62.96 573.07 63.81 573.91 64.85 573.9C65.89 573.9 66.7301 573.05 66.7201 572.01C66.7201 570.97 65.8701 570.13 64.8301 570.14Z" fill="#F0F0F0"/>
<path d="M708.99 607.78L573.11 608.24L524.69 576.69L463.33 577.48L426.5 633.82L226.33 634.49L185.1 606.53L1.79004 607.14" stroke="#F0F0F0" stroke-width="0.5" stroke-miterlimit="10"/>
<path d="M1.87003 605.26C0.830027 605.26 -0.00997267 606.11 2.73329e-05 607.15C2.73329e-05 608.19 0.850027 609.03 1.89003 609.02C2.93003 609.02 3.77003 608.17 3.76003 607.13C3.75003 606.09 2.91003 605.25 1.87003 605.26Z" fill="#F0F0F0"/>
<path d="M709.11 643.22L573.23 643.68L524.81 612.13L463.45 612.91L426.62 669.25L228.23 669.92" stroke="#F0F0F0" stroke-width="0.5" stroke-miterlimit="10"/>
<path d="M228.32 668.04C227.28 668.04 226.44 668.89 226.45 669.93C226.45 670.97 227.3 671.81 228.34 671.8C229.38 671.8 230.22 670.95 230.21 669.91C230.21 668.87 229.36 668.03 228.32 668.04Z" fill="#F0F0F0"/>
<path d="M415.82 754.76L598.87 754.14L640.09 782.11L709.58 781.88" stroke="#F0F0F0" stroke-width="0.5" stroke-miterlimit="10"/>
<path d="M415.94 756.92C414.75 756.92 413.77 755.96 413.77 754.77C413.77 753.58 414.73 752.6 415.92 752.6C417.11 752.6 418.09 753.56 418.09 754.75C418.09 755.94 417.13 756.92 415.94 756.92Z" fill="#F0F0F0"/>
<path d="M169.36 723.6L268.18 723.27L293.7 697.57L386.56 697.26L413.67 724.18L598.76 723.56L639.99 751.53L870.91 750.75L930.05 809.49L1049.16 809.09" stroke="#F0F0F0" stroke-width="0.5" stroke-miterlimit="10"/>
<path d="M1049.06 811.25C1050.25 811.25 1051.22 810.27 1051.21 809.08C1051.21 807.89 1050.23 806.92 1049.04 806.93C1047.85 806.93 1046.88 807.91 1046.89 809.1C1046.9 810.29 1047.87 811.26 1049.06 811.25Z" fill="#F0F0F0"/>
<path d="M709.17 661.67L491.12 662.41" stroke="#F0F0F0" stroke-width="0.5" stroke-miterlimit="10"/>
<path d="M491.2 660.53C490.16 660.53 489.32 661.38 489.33 662.42C489.33 663.46 490.18 664.3 491.22 664.29C492.26 664.29 493.1 663.44 493.09 662.4C493.08 661.36 492.24 660.52 491.2 660.53Z" fill="#F0F0F0"/>
<path d="M346.76 878.61L529.8 877.99L570.84 849.74L709.81 849.27" stroke="#F0F0F0" stroke-width="0.5" stroke-miterlimit="10"/>
<path d="M346.87 880.77C345.68 880.77 344.7 879.81 344.7 878.62C344.7 877.43 345.66 876.45 346.85 876.45C348.04 876.45 349.02 877.41 349.02 878.6C349.02 879.79 348.06 880.77 346.87 880.77Z" fill="#F0F0F0"/>
<path d="M305.34 906.85L529.9 906.1L570.93 877.85L709.9 877.38" stroke="#F0F0F0" stroke-width="0.5" stroke-miterlimit="10"/>
<path d="M305.45 909.02C304.26 909.02 303.28 908.06 303.28 906.87C303.28 905.68 304.24 904.7 305.43 904.7C306.62 904.7 307.6 905.66 307.6 906.85C307.6 908.04 306.64 909.02 305.45 909.02Z" fill="#F0F0F0"/>
<path d="M708.67 511.96C702.72 511.98 448.34 512.84 448.34 512.84L403.43 579.56" stroke="#F0F0F0" stroke-width="0.5" stroke-miterlimit="10"/>
<path d="M401.92 578.43C401.34 579.29 401.57 580.46 402.43 581.04C403.29 581.62 404.46 581.39 405.04 580.53C405.62 579.67 405.39 578.5 404.53 577.92C403.67 577.34 402.5 577.57 401.92 578.43Z" fill="#F0F0F0"/>
<path d="M708.59 488.95L425.71 489.91L368.35 580.04L266.3 580.38" stroke="#F0F0F0" stroke-width="0.5" stroke-miterlimit="10"/>
<path d="M266.39 578.5C265.35 578.5 264.51 579.35 264.52 580.39C264.52 581.43 265.37 582.27 266.41 582.26C267.45 582.26 268.29 581.41 268.28 580.37C268.28 579.33 267.43 578.49 266.39 578.5Z" fill="#F0F0F0"/>
<path d="M708.51 464.94L370.19 466.08L339.41 513.2L227.7 513.58" stroke="#F0F0F0" stroke-width="0.5" stroke-miterlimit="10"/>
<path d="M227.79 511.7C226.75 511.7 225.91 512.55 225.92 513.59C225.92 514.63 226.77 515.47 227.81 515.46C228.85 515.46 229.69 514.61 229.68 513.57C229.67 512.53 228.83 511.69 227.79 511.7Z" fill="#F0F0F0"/>
<path d="M707.75 239.02L597.82 239.39L540.73 296.87L449 297.18L340.46 297.55" stroke="#F0F0F0" stroke-width="0.5" stroke-miterlimit="10"/>
<path d="M340.55 295.67C339.51 295.67 338.67 296.52 338.68 297.56C338.68 298.6 339.53 299.44 340.57 299.43C341.61 299.43 342.45 298.58 342.44 297.54C342.43 296.5 341.59 295.66 340.55 295.67Z" fill="#F0F0F0"/>
<path d="M707.86 271.32L597.93 271.69L540.84 329.17L449.11 329.47L379.87 329.71L341.81 368.03L179.21 368.58" stroke="#F0F0F0" stroke-width="0.5" stroke-miterlimit="10"/>
<path d="M179.29 366.7C178.25 366.7 177.41 367.55 177.42 368.59C177.42 369.63 178.27 370.47 179.31 370.46C180.35 370.46 181.19 369.61 181.18 368.57C181.18 367.53 180.33 366.69 179.29 366.7Z" fill="#F0F0F0"/>
<path d="M707.95 299.96L607.4 300.3L551.74 356.33L464.73 356.63L404.64 356.83L355.21 406.59L218.43 411.67" stroke="#F0F0F0" stroke-width="0.5" stroke-miterlimit="10"/>
<path d="M218.45 409.79C217.41 409.83 216.6 410.7 216.64 411.74C216.68 412.78 217.55 413.59 218.59 413.55C219.63 413.51 220.44 412.64 220.4 411.6C220.36 410.56 219.49 409.75 218.45 409.79Z" fill="#F0F0F0"/>
<path d="M708.05 327.88L620.91 328.18" stroke="#F0F0F0" stroke-width="0.5" stroke-miterlimit="10"/>
<path d="M621 326.3C619.96 326.3 619.12 327.15 619.13 328.19C619.13 329.23 619.98 330.07 621.02 330.06C622.06 330.06 622.9 329.21 622.89 328.17C622.89 327.13 622.04 326.29 621 326.3Z" fill="#F0F0F0"/>
<path d="M708.15 359.19L589.88 359.59" stroke="#F0F0F0" stroke-width="0.5" stroke-miterlimit="10"/>
<path d="M589.97 357.71C588.93 357.71 588.09 358.56 588.1 359.6C588.1 360.64 588.95 361.48 589.99 361.47C591.03 361.47 591.87 360.62 591.86 359.58C591.86 358.54 591.01 357.7 589.97 357.71Z" fill="#F0F0F0"/>
<path d="M708.76 538.22L590.48 538.62" stroke="#F0F0F0" stroke-width="0.5" stroke-miterlimit="10"/>
<path d="M590.57 536.74C589.53 536.74 588.69 537.59 588.7 538.63C588.71 539.67 589.55 540.51 590.59 540.5C591.63 540.5 592.47 539.65 592.46 538.61C592.46 537.57 591.61 536.73 590.57 536.74Z" fill="#F0F0F0"/>
<path d="M545.39 441.13L294.63 441.97" stroke="#F0F0F0" stroke-width="0.5" stroke-miterlimit="10"/>
<path d="M294.71 440.09C293.67 440.09 292.83 440.94 292.84 441.98C292.85 443.02 293.69 443.86 294.73 443.85C295.77 443.85 296.61 443 296.6 441.96C296.6 440.92 295.75 440.08 294.71 440.09Z" fill="#F0F0F0"/>
<path d="M285.72 545.44L352.3 545.22L389.99 484.27" stroke="#F0F0F0" stroke-width="0.5" stroke-miterlimit="10"/>
<path d="M285.82 547.32C284.78 547.32 283.94 546.48 283.93 545.45C283.93 544.41 284.77 543.57 285.8 543.56C286.84 543.56 287.68 544.4 287.69 545.43C287.69 546.47 286.85 547.31 285.82 547.32Z" fill="#F0F0F0"/>
<path d="M708.44 443.31L588.76 443.72L555.42 410.6L406.61 411.1" stroke="#F0F0F0" stroke-width="0.5" stroke-miterlimit="10"/>
<path d="M406.7 409.22C405.66 409.22 404.82 410.07 404.83 411.11C404.83 412.15 405.68 412.99 406.72 412.98C407.76 412.98 408.6 412.13 408.59 411.09C408.58 410.05 407.74 409.21 406.7 409.22Z" fill="#F0F0F0"/>
<path d="M708.35 417.02L614.53 417.34L579.2 382.24L510.41 384.01" stroke="#F0F0F0" stroke-width="0.5" stroke-miterlimit="10"/>
<path d="M510.45 382.13C509.41 382.16 508.59 383.02 508.62 384.06C508.65 385.1 509.51 385.92 510.55 385.89C511.59 385.86 512.41 385 512.38 383.96C512.35 382.92 511.49 382.1 510.45 382.13Z" fill="#F0F0F0"/>
<path d="M708.25 387.1L644.81 387.31" stroke="#F0F0F0" stroke-width="0.5" stroke-miterlimit="10"/>
<path d="M644.9 385.43C643.86 385.43 643.02 386.28 643.03 387.32C643.03 388.36 643.88 389.2 644.92 389.19C645.96 389.19 646.8 388.34 646.79 387.3C646.79 386.26 645.94 385.42 644.9 385.43Z" fill="#F0F0F0"/>
<path d="M866.27 716.41L645.93 717.16" stroke="#F0F0F0" stroke-width="0.5" stroke-miterlimit="10"/>
<path d="M646.01 715.28C644.97 715.28 644.13 716.13 644.14 717.17C644.14 718.21 644.99 719.05 646.03 719.04C647.07 719.04 647.91 718.19 647.9 717.15C647.9 716.11 647.05 715.27 646.01 715.28Z" fill="#F0F0F0"/>
<path d="M710 905.49L646.56 905.7" stroke="#F0F0F0" stroke-width="0.5" stroke-miterlimit="10"/>
<path d="M646.65 903.82C645.61 903.82 644.77 904.67 644.78 905.71C644.79 906.75 645.63 907.59 646.67 907.58C647.71 907.58 648.55 906.73 648.54 905.69C648.54 904.65 647.69 903.81 646.65 903.82Z" fill="#F0F0F0"/>
<path d="M500.92 815.13L437.49 815.34" stroke="#F0F0F0" stroke-width="0.5" stroke-miterlimit="10"/>
<path d="M437.58 813.46C436.54 813.46 435.7 814.31 435.71 815.35C435.71 816.39 436.56 817.23 437.6 817.22C438.64 817.22 439.48 816.37 439.47 815.33C439.47 814.29 438.62 813.45 437.58 813.46Z" fill="#F0F0F0"/>
<path d="M709.27 689.83L513.62 690.49" stroke="#F0F0F0" stroke-width="0.5" stroke-miterlimit="10"/>
<path d="M513.7 688.61C512.66 688.61 511.82 689.46 511.83 690.5C511.83 691.54 512.68 692.38 513.72 692.37C514.76 692.37 515.6 691.52 515.59 690.48C515.59 689.44 514.74 688.6 513.7 688.61Z" fill="#F0F0F0"/>
<path d="M709.73 826.1L533.47 826.69L516.72 843.56L257.94 844.44" stroke="#F0F0F0" stroke-width="0.5" stroke-miterlimit="10"/>
<path d="M258.02 842.56C256.98 842.56 256.14 843.41 256.15 844.45C256.15 845.49 257 846.33 258.04 846.32C259.08 846.32 259.92 845.47 259.91 844.43C259.9 843.39 259.06 842.55 258.02 842.56Z" fill="#F0F0F0"/>
<path d="M709.65 802.75L589.59 803.16L557.83 782.39L370.33 783.02" stroke="#F0F0F0" stroke-width="0.5" stroke-miterlimit="10"/>
<path d="M370.42 781.14C369.38 781.14 368.54 781.99 368.55 783.03C368.55 784.07 369.4 784.91 370.44 784.9C371.48 784.9 372.32 784.05 372.31 783.01C372.3 781.97 371.46 781.13 370.42 781.14Z" fill="#F0F0F0"/>
<path d="M707.65 209.66L663.19 209.81L662.98 148.11L317.29 149.27" stroke="#F0F0F0" stroke-width="0.5" stroke-miterlimit="10"/>
<path d="M317.38 147.39C316.34 147.39 315.5 148.24 315.51 149.28C315.52 150.32 316.36 151.16 317.4 151.15C318.44 151.15 319.28 150.3 319.27 149.26C319.27 148.22 318.42 147.38 317.38 147.39Z" fill="#F0F0F0"/>
<path d="M707.52 171.61L690.92 171.66L690.76 124.36L555.91 124.82" stroke="#F0F0F0" stroke-width="0.5" stroke-miterlimit="10"/>
<path d="M556 122.94C554.96 122.94 554.12 123.79 554.13 124.83C554.13 125.87 554.98 126.71 556.02 126.7C557.06 126.69 557.9 125.85 557.89 124.81C557.89 123.77 557.04 122.93 556 122.94Z" fill="#F0F0F0"/>
<path d="M265.06 173.1L480.7 172.37L521.25 172.24L482.08 211.67L213.64 212.57" stroke="#F0F0F0" stroke-width="0.5" stroke-miterlimit="10"/>
<path d="M265.16 174.98C264.12 174.98 263.28 174.14 263.27 173.11C263.26 172.08 264.11 171.23 265.14 171.22C266.17 171.21 267.02 172.06 267.03 173.09C267.03 174.13 266.19 174.97 265.16 174.98Z" fill="#F0F0F0"/>
<path d="M213.73 210.69C212.69 210.69 211.85 211.54 211.86 212.58C211.86 213.62 212.71 214.46 213.75 214.45C214.79 214.45 215.63 213.6 215.62 212.56C215.61 211.52 214.77 210.68 213.73 210.69Z" fill="#F0F0F0"/>
<path d="M280.68 271.09L523.56 270.27L587.57 205.83L631.01 203.69L630.9 171.87L575.75 172.05L508.35 239.91L355.04 240.43" stroke="#F0F0F0" stroke-width="0.5" stroke-miterlimit="10"/>
<path d="M280.78 272.97C279.74 272.97 278.9 272.13 278.89 271.1C278.89 270.06 279.73 269.22 280.76 269.21C281.79 269.2 282.64 270.05 282.65 271.08C282.65 272.12 281.81 272.96 280.78 272.97Z" fill="#F0F0F0"/>
<path d="M355.13 238.55C354.09 238.55 353.25 239.4 353.26 240.44C353.26 241.48 354.11 242.32 355.15 242.31C356.19 242.31 357.03 241.46 357.02 240.42C357.02 239.38 356.17 238.54 355.13 238.55Z" fill="#F0F0F0"/>
</g>
<path d="M1051.32 840.5L1021.82 840.6L1022.01 895.22L827.67 895.87" stroke="#F0F0F0" stroke-miterlimit="10"/>
<path d="M827.85 892.11C825.77 892.11 824.1 893.81 824.1 895.88C824.1 897.95 825.8 899.63 827.87 899.63C829.94 899.63 831.62 897.93 831.62 895.86C831.62 893.78 829.92 892.11 827.85 892.11Z" fill="#F0F0F0"/>
<path d="M1049.68 353.87L827.49 354.62L806.68 333.95L759.96 334.11" stroke="#F0F0F0" stroke-miterlimit="10"/>
<path d="M760.14 330.35C758.06 330.35 756.39 332.05 756.39 334.12C756.39 336.2 758.09 337.87 760.16 337.87C762.24 337.87 763.91 336.17 763.91 334.1C763.91 332.03 762.21 330.35 760.14 330.35Z" fill="#F0F0F0"/>
<path d="M1049.37 262.9L981.47 263.13L939.55 293.11L726.92 293.83" stroke="#F0F0F0" stroke-miterlimit="10"/>
<path d="M727.09 290.07C725.01 290.07 723.34 291.77 723.34 293.84C723.34 295.92 725.04 297.59 727.11 297.59C729.19 297.59 730.86 295.89 730.86 293.82C730.86 291.74 729.16 290.07 727.09 290.07Z" fill="#F0F0F0"/>
<path d="M1049.29 238.41L952.77 238.83L928.5 258.03" stroke="#F0F0F0" stroke-miterlimit="10"/>
<path d="M926.32 254.97C924.69 256.26 924.42 258.62 925.7 260.25C926.99 261.88 929.35 262.15 930.98 260.87C932.61 259.58 932.88 257.22 931.6 255.59C930.31 253.96 927.95 253.69 926.32 254.97Z" fill="#F0F0F0"/>
<path d="M1049.05 167.4L942.7 167.76" stroke="#F0F0F0" stroke-miterlimit="10"/>
<path d="M942.87 163.99C940.79 163.99 939.12 165.69 939.12 167.76C939.12 169.84 940.82 171.51 942.89 171.51C944.97 171.51 946.64 169.81 946.64 167.74C946.64 165.66 944.94 163.99 942.87 163.99Z" fill="#F0F0F0"/>
<path d="M1049.85 404.84L943.5 405.2" stroke="#F0F0F0" stroke-miterlimit="10"/>
<path d="M943.67 401.44C941.59 401.44 939.92 403.14 939.92 405.21C939.92 407.29 941.62 408.96 943.69 408.96C945.77 408.96 947.44 407.26 947.44 405.19C947.44 403.11 945.74 401.44 943.67 401.44Z" fill="#F0F0F0"/>
<path d="M1048.95 139.29L955.83 139.6" stroke="#F0F0F0" stroke-miterlimit="10"/>
<path d="M956.01 135.84C953.93 135.84 952.26 137.54 952.26 139.61C952.26 141.69 953.96 143.36 956.03 143.36C958.11 143.36 959.78 141.66 959.78 139.59C959.78 137.51 958.08 135.84 956.01 135.84Z" fill="#F0F0F0"/>
<path d="M1049.48 295.15L996.3 295.33" stroke="#F0F0F0" stroke-width="0.5" stroke-miterlimit="10"/>
<path d="M996.39 293.45C995.35 293.45 994.51 294.3 994.52 295.34C994.52 296.38 995.37 297.22 996.41 297.21C997.45 297.2 998.29 296.36 998.28 295.32C998.28 294.28 997.43 293.44 996.39 293.45Z" fill="#F0F0F0"/>
<path d="M1046.05 440.1L917.85 440.53L867.48 473.41L839.27 473.5" stroke="#F0F0F0" stroke-miterlimit="10"/>
<path d="M839.45 469.74C837.37 469.74 835.7 471.44 835.7 473.51C835.7 475.59 837.4 477.26 839.47 477.26C841.54 477.26 843.22 475.56 843.22 473.49C843.22 471.41 841.52 469.74 839.45 469.74Z" fill="#F0F0F0"/>
<path d="M1050.08 472.79L923.45 473.22L905.57 491.22" stroke="#F0F0F0" stroke-miterlimit="10"/>
<path d="M903.03 488.44C901.57 489.91 901.57 492.29 903.05 493.76C904.53 495.23 906.9 495.22 908.37 493.74C909.83 492.27 909.82 489.89 908.35 488.42C906.88 486.95 904.5 486.96 903.03 488.44Z" fill="#F0F0F0"/>
</svg>
