<svg width="165" height="75" viewBox="0 0 165 75" fill="none" xmlns="http://www.w3.org/2000/svg">
    <g id="Logo">
        <path id="Vector"
            d="M28.03 0.00998752C35.73 -0.0100125 43.43 0.00998752 51.12 0.00998752C57.36 10.61 63.57 21.23 69.82 31.82C67.96 35.15 66.02 38.43 64.14 41.75C60.29 41.77 56.44 41.76 52.58 41.75C48.2 34.29 43.82 26.84 39.44 19.38C36.02 13.55 32.59 7.72999 29.17 1.90999C28.82 1.28999 28.45 0.689988 28.06 0.0899875L28.01 0.0199875L28.03 0.00998752Z"
            fill="#93023A" />
        <path id="Vector_2"
            d="M22.53 48.41C32.54 48.32 42.55 48.34 52.56 48.25C52.55 49.61 52.57 66.63 52.56 67.8C42.95 67.8 33.32 67.82 23.71 67.84C19.4 67.87 15.09 67.81 10.79 67.89C8.43 63.71 6.13 59.49 3.77 55.3C2.52 53 1.19 50.74 0 48.42H0.08C1.1 48.54 2.12 48.49 3.14 48.49C9.6 48.48 16.06 48.44 22.53 48.43V48.41Z"
            fill="#7C1337" />
        <path id="Vector_3"
            d="M28.08 0.0799866C28.47 0.679987 28.83 1.27999 29.19 1.89999C32.61 7.72999 36.04 13.55 39.46 19.37C33.83 29.05 28.16 38.72 22.53 48.4C16.07 48.4 9.61002 48.45 3.14002 48.46C2.12002 48.46 1.10002 48.51 0.0800171 48.39C9.41002 32.29 18.73 16.18 28.08 0.0799866Z"
            fill="#560E2A" />
        <g id="Group">
            <path id="Vector_4"
                d="M94.63 15.77C93.79 16.07 92.14 16.56 90.19 16.56C88 16.56 86.2 16 84.79 14.65C83.55 13.45 82.77 11.52 82.77 9.27C82.79 4.96 85.75 1.81 90.6 1.81C92.27 1.81 93.58 2.17 94.2 2.47L93.75 3.99C92.98 3.65 92.01 3.37 90.55 3.37C87.03 3.37 84.74 5.56 84.74 9.18C84.74 12.8 86.95 15.01 90.32 15.01C91.54 15.01 92.38 14.84 92.81 14.62V10.31H89.87V8.81H94.63V15.76V15.77Z"
                fill="#7C1337" />
            <path id="Vector_5" d="M97.42 1.19H99.31V16.42H97.42V1.19Z" fill="#7C1337" />
            <path id="Vector_6"
                d="M111.87 11.14C111.87 14.98 109.21 16.65 106.7 16.65C103.89 16.65 101.72 14.59 101.72 11.31C101.72 7.83999 103.99 5.79999 106.87 5.79999C109.75 5.79999 111.87 7.96999 111.87 11.14ZM103.64 11.25C103.64 13.52 104.95 15.24 106.79 15.24C108.63 15.24 109.94 13.55 109.94 11.21C109.94 9.44999 109.06 7.21999 106.83 7.21999C104.6 7.21999 103.63 9.27999 103.63 11.25H103.64Z"
                fill="#7C1337" />
            <path id="Vector_7"
                d="M114.17 16.41C114.21 15.7 114.26 14.65 114.26 13.73V1.19H116.13V7.71H116.17C116.83 6.55 118.04 5.8 119.71 5.8C122.28 5.8 124.11 7.94 124.08 11.1C124.08 14.81 121.74 16.65 119.43 16.65C117.93 16.65 116.73 16.07 115.96 14.7H115.9L115.81 16.42H114.18L114.17 16.41ZM116.12 12.25C116.12 12.49 116.16 12.72 116.21 12.94C116.57 14.25 117.67 15.15 119.04 15.15C121.01 15.15 122.19 13.54 122.19 11.16C122.19 9.08 121.12 7.3 119.1 7.3C117.81 7.3 116.61 8.18 116.23 9.62C116.19 9.83 116.12 10.09 116.12 10.39V12.26V12.25Z"
                fill="#7C1337" />
            <path id="Vector_8"
                d="M132.2 16.41L132.05 15.1H131.99C131.41 15.91 130.3 16.64 128.82 16.64C126.72 16.64 125.65 15.16 125.65 13.66C125.65 11.15 127.88 9.77999 131.89 9.79999V9.58999C131.89 8.72999 131.65 7.18999 129.53 7.18999C128.57 7.18999 127.56 7.48999 126.83 7.95999L126.4 6.71999C127.26 6.15999 128.5 5.79999 129.81 5.79999C132.98 5.79999 133.76 7.96999 133.76 10.05V13.93C133.76 14.83 133.8 15.71 133.93 16.42H132.21L132.2 16.41ZM131.92 11.11C129.86 11.07 127.52 11.43 127.52 13.45C127.52 14.67 128.33 15.25 129.3 15.25C130.65 15.25 131.51 14.39 131.81 13.51C131.87 13.32 131.92 13.1 131.92 12.91V11.11Z"
                fill="#7C1337" />
            <path id="Vector_9" d="M136.79 1.19H138.68V16.42H136.79V1.19Z" fill="#7C1337" />
            <path id="Vector_10" d="M85.5 27.69V42.14H83.63V27.69H85.5Z" fill="#7C1337" />
            <path id="Vector_11"
                d="M88.91 34.58C88.91 33.51 88.89 32.63 88.82 31.77H90.49L90.6 33.49H90.64C91.15 32.5 92.36 31.54 94.07 31.54C95.51 31.54 97.74 32.4 97.74 35.96V42.16H95.85V36.18C95.85 34.51 95.23 33.11 93.45 33.11C92.21 33.11 91.24 33.99 90.92 35.04C90.83 35.28 90.79 35.6 90.79 35.92V42.16H88.9V34.59L88.91 34.58Z"
                fill="#7C1337" />
            <path id="Vector_12"
                d="M109.77 26.92V39.46C109.77 40.38 109.79 41.43 109.86 42.14H108.17L108.08 40.34H108.04C107.46 41.5 106.2 42.38 104.5 42.38C101.99 42.38 100.06 40.26 100.06 37.1C100.04 33.65 102.18 31.52 104.71 31.52C106.3 31.52 107.37 32.27 107.84 33.11H107.88V26.91H109.77V26.92ZM107.88 35.99C107.88 35.75 107.86 35.43 107.79 35.2C107.51 34 106.48 33.01 105.07 33.01C103.12 33.01 101.96 34.73 101.96 37.02C101.96 39.12 102.99 40.86 105.03 40.86C106.3 40.86 107.45 40.02 107.8 38.61C107.86 38.35 107.89 38.1 107.89 37.8V36L107.88 35.99Z"
                fill="#7C1337" />
            <path id="Vector_13"
                d="M121.59 39.32C121.59 40.39 121.61 41.34 121.68 42.15H120.01L119.9 40.46H119.86C119.37 41.3 118.27 42.39 116.43 42.39C114.8 42.39 112.85 41.49 112.85 37.84V31.77H114.74V37.52C114.74 39.49 115.34 40.82 117.06 40.82C118.33 40.82 119.2 39.94 119.55 39.1C119.66 38.82 119.72 38.48 119.72 38.14V31.77H121.61V39.32H121.59Z"
                fill="#7C1337" />
            <path id="Vector_14"
                d="M124.46 40.22C125.02 40.58 126 40.97 126.95 40.97C128.32 40.97 128.97 40.28 128.97 39.43C128.97 38.53 128.43 38.04 127.04 37.52C125.17 36.86 124.3 35.83 124.3 34.58C124.3 32.91 125.65 31.53 127.88 31.53C128.93 31.53 129.85 31.83 130.43 32.17L129.96 33.54C129.55 33.28 128.8 32.94 127.84 32.94C126.72 32.94 126.1 33.58 126.1 34.36C126.1 35.22 126.72 35.6 128.07 36.12C129.87 36.81 130.79 37.71 130.79 39.25C130.79 41.07 129.37 42.36 126.91 42.36C125.77 42.36 124.72 42.08 123.99 41.65L124.46 40.21V40.22Z"
                fill="#7C1337" />
            <path id="Vector_15"
                d="M135.48 28.79V31.77H138.18V33.21H135.48V38.81C135.48 40.1 135.84 40.83 136.9 40.83C137.39 40.83 137.76 40.77 137.99 40.7L138.08 42.12C137.72 42.27 137.14 42.38 136.41 42.38C135.53 42.38 134.82 42.1 134.37 41.59C133.83 41.03 133.64 40.11 133.64 38.89V33.23H132.03V31.79H133.64V29.3L135.48 28.81V28.79Z"
                fill="#7C1337" />
            <path id="Vector_16"
                d="M140.31 35.01C140.31 33.79 140.29 32.74 140.22 31.77H141.87L141.93 33.81H142.02C142.49 32.42 143.63 31.54 144.89 31.54C145.1 31.54 145.25 31.56 145.43 31.6V33.38C145.24 33.34 145.04 33.32 144.79 33.32C143.46 33.32 142.52 34.33 142.26 35.74C142.22 36 142.17 36.3 142.17 36.62V42.15H140.3V35.01H140.31Z"
                fill="#7C1337" />
            <path id="Vector_17"
                d="M149.51 28.85C149.53 29.49 149.06 30.01 148.31 30.01C147.65 30.01 147.17 29.5 147.17 28.85C147.17 28.2 147.66 27.67 148.35 27.67C149.04 27.67 149.51 28.18 149.51 28.85ZM147.41 42.15V31.77H149.3V42.15H147.41Z"
                fill="#7C1337" />
            <path id="Vector_18"
                d="M158.17 42.15L158.02 40.84H157.96C157.38 41.65 156.27 42.38 154.79 42.38C152.69 42.38 151.62 40.9 151.62 39.4C151.62 36.89 153.85 35.52 157.86 35.54V35.33C157.86 34.47 157.62 32.93 155.5 32.93C154.54 32.93 153.53 33.23 152.8 33.7L152.37 32.46C153.23 31.9 154.47 31.54 155.78 31.54C158.95 31.54 159.73 33.71 159.73 35.79V39.67C159.73 40.57 159.77 41.45 159.9 42.16H158.18L158.17 42.15ZM157.89 36.85C155.83 36.81 153.49 37.17 153.49 39.19C153.49 40.41 154.3 40.99 155.27 40.99C156.62 40.99 157.48 40.13 157.78 39.25C157.84 39.06 157.89 38.84 157.89 38.65V36.85Z"
                fill="#7C1337" />
            <path id="Vector_19" d="M162.76 26.92H164.65V42.15H162.76V26.92Z" fill="#7C1337" />
            <path id="Vector_20"
                d="M83.38 65.61C84.22 66.12 85.44 66.55 86.73 66.55C88.64 66.55 89.75 65.54 89.75 64.08C89.75 62.73 88.98 61.96 87.03 61.21C84.67 60.37 83.21 59.15 83.21 57.11C83.21 54.86 85.08 53.19 87.88 53.19C89.36 53.19 90.43 53.53 91.08 53.9L90.57 55.42C90.1 55.16 89.13 54.73 87.83 54.73C85.86 54.73 85.11 55.91 85.11 56.9C85.11 58.25 85.99 58.92 87.98 59.69C90.42 60.63 91.67 61.81 91.67 63.94C91.67 66.17 90.02 68.1 86.61 68.1C85.22 68.1 83.69 67.69 82.92 67.18L83.39 65.61H83.38Z"
                fill="#7C1337" />
            <path id="Vector_21"
                d="M103.66 62.61C103.66 66.45 101 68.12 98.49 68.12C95.68 68.12 93.51 66.06 93.51 62.78C93.51 59.31 95.78 57.27 98.66 57.27C101.54 57.27 103.66 59.44 103.66 62.61ZM95.43 62.72C95.43 64.99 96.74 66.71 98.58 66.71C100.42 66.71 101.73 65.02 101.73 62.68C101.73 60.92 100.85 58.69 98.62 58.69C96.39 58.69 95.42 60.75 95.42 62.72H95.43Z"
                fill="#7C1337" />
            <path id="Vector_22" d="M106.04 52.66H107.93V67.89H106.04V52.66Z" fill="#7C1337" />
            <path id="Vector_23"
                d="M119.79 65.05C119.79 66.12 119.81 67.07 119.88 67.88H118.21L118.1 66.19H118.06C117.57 67.03 116.47 68.12 114.63 68.12C113 68.12 111.05 67.22 111.05 63.57V57.5H112.94V63.25C112.94 65.22 113.54 66.55 115.26 66.55C116.53 66.55 117.4 65.67 117.75 64.83C117.86 64.55 117.92 64.21 117.92 63.87V57.5H119.81V65.05H119.79Z"
                fill="#7C1337" />
            <path id="Vector_24"
                d="M125.19 54.52V57.5H127.89V58.94H125.19V64.54C125.19 65.83 125.55 66.56 126.61 66.56C127.1 66.56 127.47 66.5 127.7 66.43L127.79 67.85C127.43 68 126.85 68.11 126.12 68.11C125.24 68.11 124.53 67.83 124.08 67.32C123.54 66.76 123.35 65.84 123.35 64.62V58.96H121.74V57.52H123.35V55.03L125.19 54.54V54.52Z"
                fill="#7C1337" />
            <path id="Vector_25"
                d="M132.12 54.59C132.14 55.23 131.67 55.75 130.92 55.75C130.26 55.75 129.78 55.24 129.78 54.59C129.78 53.94 130.27 53.41 130.96 53.41C131.65 53.41 132.12 53.92 132.12 54.59ZM130.02 67.89V57.51H131.91V67.89H130.02Z"
                fill="#7C1337" />
            <path id="Vector_26"
                d="M144.43 62.61C144.43 66.45 141.77 68.12 139.26 68.12C136.45 68.12 134.28 66.06 134.28 62.78C134.28 59.31 136.55 57.27 139.43 57.27C142.31 57.27 144.43 59.44 144.43 62.61ZM136.2 62.72C136.2 64.99 137.51 66.71 139.35 66.71C141.19 66.71 142.5 65.02 142.5 62.68C142.5 60.92 141.62 58.69 139.39 58.69C137.16 58.69 136.19 60.75 136.19 62.72H136.2Z"
                fill="#7C1337" />
            <path id="Vector_27"
                d="M146.81 60.31C146.81 59.24 146.79 58.36 146.72 57.5H148.39L148.5 59.22H148.54C149.05 58.23 150.26 57.27 151.97 57.27C153.41 57.27 155.64 58.13 155.64 61.69V67.89H153.75V61.91C153.75 60.24 153.13 58.84 151.35 58.84C150.11 58.84 149.14 59.72 148.82 60.77C148.73 61.01 148.69 61.33 148.69 61.65V67.89H146.8V60.32L146.81 60.31Z"
                fill="#7C1337" />
            <path id="Vector_28"
                d="M158.45 65.95C159.01 66.31 159.99 66.7 160.94 66.7C162.31 66.7 162.96 66.01 162.96 65.16C162.96 64.26 162.42 63.77 161.03 63.25C159.16 62.59 158.29 61.56 158.29 60.31C158.29 58.64 159.64 57.26 161.87 57.26C162.92 57.26 163.84 57.56 164.42 57.9L163.95 59.27C163.54 59.01 162.79 58.67 161.83 58.67C160.71 58.67 160.09 59.31 160.09 60.09C160.09 60.95 160.71 61.33 162.06 61.85C163.86 62.54 164.78 63.44 164.78 64.98C164.78 66.8 163.36 68.09 160.9 68.09C159.76 68.09 158.71 67.81 157.98 67.38L158.45 65.94V65.95Z"
                fill="#7C1337" />
        </g>
        <path id="Vector_29" d="M52.56 48.24L69.89 60.72V74.27H52.56V48.24Z" fill="url(#paint0_linear_1_255)" />
        <path id="Vector_30" d="M76.24 0H75.68V68.1H76.24V0Z" fill="#CBCBCA" />
    </g>
    <defs>
        <linearGradient id="paint0_linear_1_255" x1="61.23" y1="48.21" x2="61.23" y2="74.34"
            gradientUnits="userSpaceOnUse">
            <stop stop-color="white" />
            <stop offset="1" stop-color="#A8A7A7" />
        </linearGradient>
    </defs>
</svg>