<svg width="109" height="26" viewBox="0 0 109 26" fill="none" xmlns="http://www.w3.org/2000/svg">
<g id="SM Icons">
<g id="Group">
<path id="Vector" d="M54.09 15.7615C55.5977 15.7615 56.82 14.543 56.82 13.0399C56.82 11.5368 55.5977 10.3182 54.09 10.3182C52.5822 10.3182 51.36 11.5368 51.36 13.0399C51.36 14.543 52.5822 15.7615 54.09 15.7615Z" fill="#A5002F"/>
<path id="Vector_2" d="M60.4699 8.22464C60.3199 7.8458 60.1399 7.57663 59.8599 7.28752C59.5699 6.99841 59.2999 6.82893 58.9199 6.67939C58.6299 6.56973 58.1999 6.43016 57.3999 6.40025C56.5399 6.36037 56.2799 6.3504 54.0899 6.3504C51.8999 6.3504 51.6499 6.3504 50.7799 6.40025C49.9799 6.44013 49.5499 6.56973 49.2599 6.67939C48.8799 6.82893 48.6099 7.00838 48.3199 7.28752C48.0299 7.57663 47.8599 7.8458 47.7099 8.22464C47.5999 8.51375 47.4599 8.94243 47.4299 9.73998C47.3899 10.5973 47.3799 10.8565 47.3799 13.0398C47.3799 15.2231 47.3799 15.4723 47.4299 16.3397C47.4699 17.1372 47.5999 17.5659 47.7099 17.855C47.8599 18.2338 48.0399 18.503 48.3199 18.7921C48.6099 19.0812 48.8799 19.2507 49.2599 19.4003C49.5499 19.5099 49.9799 19.6495 50.7799 19.6794C51.6399 19.7193 51.8999 19.7292 54.0899 19.7292C56.2799 19.7292 56.5299 19.7292 57.3999 19.6794C58.1999 19.6395 58.6299 19.5099 58.9199 19.4003C59.2999 19.2507 59.5699 19.0713 59.8599 18.7921C60.1499 18.513 60.3199 18.2338 60.4699 17.855C60.5799 17.5659 60.7199 17.1372 60.7499 16.3397C60.7899 15.4823 60.7999 15.2231 60.7999 13.0398C60.7999 10.8565 60.7999 10.6073 60.7499 9.73998C60.7099 8.94243 60.5799 8.51375 60.4699 8.22464ZM54.0899 17.2269C51.7699 17.2269 49.8899 15.3527 49.8899 13.0398C49.8899 10.7269 51.7699 8.85271 54.0899 8.85271C56.4099 8.85271 58.2899 10.7269 58.2899 13.0398C58.2899 15.3527 56.4099 17.2269 54.0899 17.2269ZM58.4599 9.66022C57.9199 9.66022 57.4799 9.22157 57.4799 8.68323C57.4799 8.14488 57.9199 7.70623 58.4599 7.70623C58.9999 7.70623 59.4399 8.14488 59.4399 8.68323C59.4399 9.22157 58.9999 9.66022 58.4599 9.66022Z" fill="#A5002F"/>
<path id="Vector_3" d="M54.09 0.0797119C46.91 0.0797119 41.09 5.88186 41.09 13.0398C41.09 20.1978 46.91 26 54.09 26C61.27 26 67.09 20.1978 67.09 13.0398C67.09 5.88186 61.27 0.0797119 54.09 0.0797119ZM62.23 16.3995C62.19 17.2668 62.05 17.865 61.85 18.3834C61.64 18.9217 61.36 19.3704 60.91 19.829C60.45 20.2875 60 20.5567 59.46 20.7661C58.94 20.9655 58.34 21.105 57.47 21.1449C56.6 21.1848 56.32 21.1948 54.1 21.1948C51.88 21.1948 51.6 21.1948 50.73 21.1449C49.86 21.105 49.26 20.9655 48.74 20.7661C48.2 20.5567 47.75 20.2776 47.29 19.829C46.83 19.3704 46.56 18.9217 46.35 18.3834C46.15 17.865 46.01 17.2668 45.97 16.3995C45.93 15.5322 45.92 15.253 45.92 13.0398C45.92 10.8266 45.92 10.5475 45.97 9.68018C46.01 8.81285 46.15 8.21469 46.35 7.69628C46.56 7.15794 46.84 6.70932 47.29 6.25073C47.75 5.79214 48.2 5.52297 48.74 5.31361C49.26 5.11422 49.86 4.97465 50.73 4.93478C51.6 4.8949 51.88 4.88493 54.1 4.88493C56.32 4.88493 56.6 4.88493 57.47 4.93478C58.34 4.97465 58.94 5.11422 59.46 5.31361C60 5.52297 60.45 5.80211 60.91 6.25073C61.37 6.70932 61.64 7.15794 61.85 7.69628C62.05 8.21469 62.19 8.81285 62.23 9.68018C62.27 10.5475 62.28 10.8266 62.28 13.0398C62.28 15.253 62.28 15.5322 62.23 16.3995Z" fill="#A5002F"/>
</g>
<path id="Vector_4" d="M95.18 0.0797119C88 0.0797119 82.18 5.88186 82.18 13.0398C82.18 20.1978 88 26 95.18 26C102.36 26 108.18 20.1978 108.18 13.0398C108.18 5.88186 102.36 0.0797119 95.18 0.0797119ZM90.89 20.1181C89.97 20.1081 89.04 20.1181 88.12 20.1181C87.97 20.1181 87.93 20.0782 87.93 19.9286C87.93 16.6388 87.93 13.3589 87.93 10.069C87.93 9.92941 87.96 9.87956 88.11 9.88953C89.05 9.88953 89.99 9.88953 90.92 9.88953C91.1 9.88953 91.12 9.95932 91.12 10.1089C91.12 11.7438 91.12 13.3788 91.12 15.0138C91.12 16.6487 91.12 18.2638 91.12 19.8788C91.12 20.0583 91.08 20.1181 90.89 20.1081V20.1181ZM89.52 8.48386C88.51 8.48386 87.68 7.6564 87.67 6.6495C87.67 5.63263 88.5 4.80517 89.52 4.80517C90.53 4.80517 91.36 5.63263 91.36 6.63953C91.36 7.6564 90.53 8.48386 89.51 8.48386H89.52ZM103.08 19.9087C103.08 20.0782 103.03 20.1181 102.87 20.1181C101.94 20.1181 101.02 20.1181 100.09 20.1181C99.93 20.1181 99.89 20.0682 99.89 19.9187C99.89 18.2139 99.89 16.5092 99.89 14.8044C99.89 14.3757 99.86 13.9471 99.74 13.5383C99.52 12.7707 98.97 12.3819 98.17 12.4217C97.07 12.4816 96.5 13.0199 96.36 14.1365C96.33 14.4056 96.31 14.6648 96.31 14.934C96.31 16.5889 96.31 18.2438 96.31 19.9087C96.31 20.0782 96.27 20.1181 96.1 20.1181C95.17 20.1181 94.24 20.1181 93.3 20.1181C93.15 20.1181 93.11 20.0782 93.11 19.9286C93.11 16.6487 93.11 13.3688 93.11 10.0889C93.11 9.92941 93.16 9.88953 93.32 9.88953C94.2 9.88953 95.09 9.88953 95.97 9.88953C96.13 9.88953 96.17 9.93938 96.17 10.0989C96.17 10.4877 96.17 10.8865 96.17 11.2753C96.38 11.036 96.56 10.7967 96.78 10.5874C97.45 9.94935 98.25 9.63033 99.18 9.6403C99.69 9.6403 100.2 9.68018 100.69 9.81975C101.82 10.1487 102.47 10.9164 102.79 12.023C103.02 12.8504 103.07 13.6978 103.07 14.5452C103.07 16.3397 103.07 18.1242 103.07 19.9187L103.08 19.9087Z" fill="#A5002F"/>
<path id="Vector_5" d="M13 0C5.82 0 0 5.84203 0 13.0399C0 19.5499 4.75 24.9433 10.97 25.9203V16.8083H7.67V13.0399H10.97V10.1687C10.97 6.89878 12.91 5.09433 15.88 5.09433C17.3 5.09433 18.79 5.35353 18.79 5.35353V8.56365H17.15C15.54 8.56365 15.03 9.57056 15.03 10.5974V13.0399H18.64L18.06 16.8083H15.03V25.9203C21.24 24.9433 26 19.5499 26 13.0399C26 5.84203 20.18 0 13 0Z" fill="#A5002F"/>
</g>
</svg>
