<svg xmlns="http://www.w3.org/2000/svg" width="308" height="327" viewBox="0 0 308 327" fill="none">
    <path
        d="M123.48 1.04656C157.15 0.956562 190.82 1.02656 224.49 1.01656C251.77 47.3866 278.95 93.8166 306.29 140.157C298.14 154.707 289.65 169.067 281.46 183.587C264.61 183.677 247.77 183.637 230.91 183.607C211.76 150.977 192.59 118.367 173.43 85.7566C158.47 60.2766 143.47 34.8166 128.53 9.32656C126.98 6.63656 125.37 3.97656 123.68 1.36656L123.48 1.04656Z"
        stroke="#A5002F" stroke-miterlimit="10" />
    <path
        d="M99.4 212.737C143.19 212.357 186.98 212.447 230.76 212.027C230.71 217.997 230.82 292.417 230.76 297.527C188.73 297.547 146.6 297.627 104.57 297.687C85.74 297.797 66.89 297.547 48.06 297.897C37.73 279.597 27.66 261.137 17.36 242.807C11.91 232.747 6.07998 222.867 0.849976 212.697L1.19998 212.727C5.64998 213.227 10.13 212.987 14.59 213.017C42.86 212.967 71.12 212.777 99.39 212.747L99.4 212.737Z"
        stroke="#A5002F" stroke-miterlimit="10" />
    <path
        d="M123.68 1.3667C125.37 3.9767 126.98 6.6367 128.53 9.3267C143.48 34.8167 158.48 60.2767 173.43 85.7567C148.8 128.107 124.02 170.377 99.4 212.737C71.13 212.767 42.87 212.957 14.6 213.007C10.14 212.987 5.65996 213.227 1.20996 212.717C42 142.257 82.77 71.7767 123.68 1.3667Z"
        stroke="#A5002F" stroke-miterlimit="10" />
    <path d="M230.76 212.027L306.58 266.577V325.847H230.76V212.027Z" stroke="#A5002F" stroke-miterlimit="10" />
</svg>